<?xml version="1.0" encoding="UTF-8"?>
<svg id="a" data-name="Layer 4" xmlns="http://www.w3.org/2000/svg" width="310.901793" height="153.525205" viewBox="0 0 310.901793 153.525205">
  <path d="M.076279,70.999584c11.586038-9.967286,23.903414-14.737304,37.814591-17.282214,9.497177-1.874768,18.884445.379445,28.059973,2.827614,5.373718,1.37184,13.150194,2.492187,18.678594,3.355697,4.662987.7518,14.044019,2.437596,18.678443,3.356966,9.056144,1.823327,19.030215,3.869664,27.999974,5.965475,6.220558,1.41666,12.438575,2.962315,18.654182,4.63541l-.076263,3.999268c-18.514495,4.214287-37.644895,7.432359-56.422645,10.225873-4.678742.639491-14.097102,1.813614-18.78723,2.342077-6.298224.682242-12.574749,2.290474-18.808183,3.442049-12.936807,2.519244-25.365389-.916013-37.363629-6.368925-6.190198-3.003195-12.368344-6.640158-18.504086-12.49996,0,0,.076279-3.999329.076279-3.999329H.076279Z" fill="#fff"/>
  <path d="M112.619293,71.090465c27.952792-5.74093,56.446674-8.422193,84.076272-15.330964,2.672248-.745986,5.370017-1.537031,7.933782-2.574147,6.153719-2.473196,10.952197-7.94148,12.888812-14.158322,5.318058-16.891172-4.633926-27.867358-21.99044-26.973717-3.515164.325223-7.209278,1.038724-9.712233,3.804958.000036.000076-1.88061-.680466-1.88061-.680466.178955-2.44397,1.498657-4.77417,3.125183-6.602966,8.754468-9.129467,23.670087-10.995064,35.192407-5.471605,10.245679,5.027579,16.977705,16.293772,17.351733,27.548688.750816,13.824501-7.3136,26.991464-19.160963,33.699982-6.290409,3.721465-13.414781,5.368805-20.542228,6.451077-16.611643,2.593999-33.314127,2.621805-50.044959,2.811095-11.944897-.050877-25.183938-.158184-37.075762-.530198-.000106.000055-.160995-1.993414-.160995-1.993414h0Z" fill="#fff"/>
  <path d="M237.269531,26.711193c5.225349,13.259444,14.331989,25.50256,25.710189,34.316819,7.066686,5.539313,15.004816,9.875825,23.647499,12.94827,7.682809,2.713122,15.851907,4.362658,24.194649,4.850451-16.914099,2.083856-34.500989-.752632-50.038937-8.261745-16.289154-7.79061-29.873427-20.237357-39.522646-35.62549.000029-.000034,16.009245-8.228305,16.009245-8.228305h0Z" fill="#fff"/>
  <path d="M112.832611,75.437572c22.579326.605598,45.538438,1.507864,68.014744,3.857249,8.463127,1.035818,16.956211,2.310526,25.266633,4.548364,7.425465,1.910606,14.413428,5.55031,19.970651,10.938043,17.165583,16.280704,14.817833,46.097514-7.621104,56.310491-9.891519,4.093449-20.644608,2.864654-29.362641-2.50008-3.974339-2.550401-8.053156-6.575967-8.265139-11.577437.000061-.000031,1.913971-.580537,1.913971-.580537,4.609521,5.241293,13.624701,5.054696,19.783398,3.752139,12.357774-2.580245,16.166533-14.095267,13.096483-25.217545-2.372671-8.859309-8.56938-14.140098-17.183142-16.856652-8.33397-3.028413-17.144008-5.06648-25.813284-7.144073-20.007242-4.471471-40.094195-8.565375-60.066318-13.54785-.000028.000125.265749-1.982113.265749-1.982113h0Z" fill="#fff"/>
  <path d="M219.151093,119.247631c20.387732-29.448991,56.442187-45.512562,91.750701-39.104691-8.356994.047074-16.601684,1.263688-24.416839,3.56807-9.767966,2.88056-18.681858,7.423131-26.700632,13.40366-10.703145,8.093694-19.579514,19.107629-25.080009,31.193786-.000029-.000033-15.553222-9.060824-15.553222-9.060824h0Z" fill="#fff"/>
</svg>