<?xml version="1.0" encoding="UTF-8"?>
<svg id="a" data-name="Layer 2" xmlns="http://www.w3.org/2000/svg" width="495.04857" height="365.198636" viewBox="0 0 495.04857 365.198636">
  <path d="M488.453855,136.110069c-4.559998,9.160034-8.200012,12.660034-13.51001,19.119995-37.429993,45.290039-417.97998,45.290039-455.419983,0-5.309998-6.459961-8.940002-9.959961-13.5-19.119995C1.763853,127.320091-.956118,116.100059.313841,106.000084c2.340027-23.909973,24.850037-42.049988,48.830017-39.339966,14.289978,1.129944,30.049988,10.98999,38.22998,21.409973,29.51001,38.440002,158.880005,212.529968,159.859985,214.039978.990051-1.51001,130.360046-175.599976,159.860046-214.039978,8.190002-10.419983,23.950012-20.280029,38.22998-21.409973,23.97998-2.710022,46.48999,15.429993,48.830017,39.339966,1.269958,10.099976-1.440002,21.320007-5.700012,30.109985Z" fill="#fff"/>
</svg>