<?xml version="1.0" encoding="UTF-8"?>
<svg xmlns="http://www.w3.org/2000/svg" width="652.459091" height="652.459" viewBox="0 0 652.459091 652.459">
  <g id="a" data-name="Layer 1">
    <g>
      <path d="M618.852524,19.999985c7.502625,0,13.606506,6.103912,13.606506,13.606598v184.054077c-1.049133-.042358-2.112854-.063477-3.191956-.063477h-361.726013V33.606583c0-7.502686,6.103882-13.606598,13.606567-13.606598h337.704895M618.852524,0h-337.704895c-18.560364,0-33.606598,15.046188-33.606598,33.606583v203.990601h381.726044c8.518372,0,16.381348,1.643524,23.191956,7.031219V33.606583c0-18.560394-15.046082-33.606583-33.606506-33.606583h0Z" fill="#fff"/>
      <line x1="409.836131" y1="60.655796" x2="490.164" y2="60.655796" fill="none" stroke="#fff" stroke-linecap="round" stroke-miterlimit="10" stroke-width="20"/>
      <path d="M580.737778,110.044479c7.502625,0,13.606567,6.103912,13.606567,13.606628v93.946106h-288.688599v-93.946106c0-7.502716,6.103943-13.606628,13.606689-13.606628h261.475342M580.737778,90.044479h-261.475342c-18.560486,0-33.606689,15.046173-33.606689,33.606628v113.946106h328.688599v-113.946106c0-18.560455-15.046204-33.606628-33.606567-33.606628h0Z" fill="#fff"/>
    </g>
    <g>
      <path d="M618.852524,267.541c7.502686,0,13.606567,6.103882,13.606567,13.606537v337.704956c0,7.502625-6.103882,13.606506-13.606567,13.606506H33.606674c-7.502808,0-13.606689-6.103882-13.606689-13.606506l.000153-337.704956c0-7.502655,6.103851-13.606537,13.606537-13.606537h585.24585M618.852524,247.541H33.606674C15.04628,247.541.000137,262.587143.000137,281.147537l-.000137,337.704956c0,18.560364,15.04628,33.606506,33.606674,33.606506h585.24585c18.560425,0,33.606567-15.046143,33.606567-33.606506v-337.704956c0-18.560394-15.046143-33.606537-33.606567-33.606537h0Z" fill="#fff"/>
      <line x1="60.655806" y1="490.163982" x2="60.655808" y2="409.836113" fill="none" stroke="#fff" stroke-linecap="round" stroke-miterlimit="10" stroke-width="20"/>
      <path d="M586.065659,305.655716c7.502747,0,13.606628,6.103882,13.606628,13.606567v261.475464c0,7.502686-6.103882,13.606567-13.606628,13.606567H123.651077c-7.502686,0-13.606567-6.103882-13.606567-13.606567v-261.475464c0-7.502686,6.103882-13.606567,13.606567-13.606567h462.414581M586.065659,285.655716H123.651077c-18.560333,0-33.606567,15.046265-33.606567,33.606567v261.475464c0,18.560425,15.046234,33.606567,33.606567,33.606567h462.414581c18.560364,0,33.606628-15.046143,33.606628-33.606567v-261.475464c0-18.560303-15.046265-33.606567-33.606628-33.606567h0Z" fill="#fff"/>
    </g>
  </g>
  <g id="b" data-name="Layer 2">
    <g>
      <path d="M69.843155,152.151962c26.072968-54.136017,81.456116-91.496155,145.565216-91.496155" fill="none" stroke="#fff" stroke-linecap="round" stroke-miterlimit="10" stroke-width="20"/>
      <polygon points="124.235947 151.416702 53.932968 222.13121 27.830795 125.893326 124.235947 151.416702" fill="#fff"/>
    </g>
  </g>
</svg>