<?xml version="1.0" encoding="UTF-8"?>
<svg id="a" data-name="Layer 12" xmlns="http://www.w3.org/2000/svg" width="1047.922974" height="1175.615873" viewBox="0 0 1047.922974 1175.615873">
  <g>
    <path d="M675.713989,352.485168c.163513.157349.329956.311401.492859.469421.153503-.268677.304443-.539856.460449-.806091-.31897.110596-.632812.228271-.953308.33667Z" fill="none"/>
    <path d="M736.596741,309.460205c-.479126.612732-.948242,1.236572-1.436646,1.838989.873474-.183899,1.740295-.38147,2.624329-.543396-.397278-.430603-.796204-.859802-1.187683-1.295593Z" fill="none"/>
    <path d="M491.630432,304.578674c12.944031-1.93866,26.527588-2.929688,40.712341-2.929688,36.358215,0,68.663513,6.335571,96.047485,18.81543,17.281372-.601746,32.223206-3.953308,44.804565-10.073853,16.942444-8.120789,30.247986-20.664429,39.941223-37.600342-6.629761-15.388672-9.986633-31.344482-9.986633-47.627441,0-18.164917,4.909424-34.477173,14.591858-48.483459,3.973877-5.748535,8.701233-10.977356,14.125122-15.682312-1.470642-19.843933-5.187439-37.300659-11.155334-52.362305-7.919312-19.987061-20.146118-35.28949-36.674255-45.913635-16.531189-10.621033-37.617065-15.933044-63.260803-15.933044-11.440125,0-22.249756,2.012268-32.431702,6.033875-1.635254.630554-3.143738.942688-4.525391.942688-2.516235,0-4.967407-.81604-7.353699-2.451233-8.42334-6.033752-21.872681-9.050659-40.351196-9.050659-17.096802,0-30.074829,3.393982-38.937073,10.182007-8.862122,6.788147-14.866516,18.855713-18.00708,36.202942-3.143738,17.347168-4.713989,41.859558-4.713989,73.53717,0,40.98175,2.639893,81.332947,7.919495,121.053467,1.188354,8.579895,4.278076,15.689209,9.255066,21.340393ZM589.569885,158.97937c1.820679-4.021484,5.750916-6.033875,11.78479-6.033875,5.529968,0,9.928528,1.88562,13.198914,5.656677,4.52533,5.279724,6.788147,12.194397,6.788147,20.741333,0,3.016907-.471436,6.631958-1.414246,10.84198-.942688,4.213196-3.016968,8.172913-6.22229,11.879089-3.205444,3.70929-7.324524,5.562378-12.350525,5.562378-5.156006,0-8.862122-1.726257-11.124939-5.185181-2.262695-3.455872-3.39386-11.908569-3.39386-25.360962,0-8.04303.910278-14.076782,2.734009-18.10144Z" fill="none"/>
    <path d="M352.166382,649.625183c7.856445,6.113525,12.394409,12.570435,13.617981,19.379395,3.838135,22.350281,11.216003,37.84137,22.129211,46.483521,2.454102,1.944092,5.190613,3.657471,8.179688,5.164307,13.694153-3.902649,28.061707-5.898438,42.914001-5.898438,15.42572,0,29.701172,1.729126,42.783691,5.153076,15.525635-8.138672,23.315857-22.128784,23.315857-41.998352,0-3.666443-.261841-7.332764-.785522-10.999207-.352051-2.266785-.523865-4.190002-.523865-5.761353,0-9.599731,5.237671-14.403748,15.713074-14.403748,11.346924,0,17.022461,4.366211,17.022461,13.09436v10.475342c0,17.808167,6.940002,31.94989,20.819824,42.425232,2.921692,2.205017,6.099976,4.163696,9.505066,5.904602,13.030762-5.584656,28.354492-8.415283,45.810242-8.415283,21.835083,0,41.676819.709412,59.302124,2.109741,10.713989-8.484985,17.076416-20.482727,19.074585-36.001038,6.457092-48.882324,9.689819-93.492615,9.689819-133.822937,0-7.987366-.223938-15.743958-.65564-23.286438-5.449585-4.407166-10.281616-9.349243-14.479004-14.821472-16.026733-20.514587-23.817871-48.486938-23.817871-85.501587,0-7.257446.34198-14.121094,1.018616-20.614868-27.654968-37.750122-71.134338-56.641052-130.457947-56.641052-58.31427,0-101.787048,18.507874-130.418396,55.519592-24.969116,32.473694-39.282654,77.169983-42.949097,134.0849-.351868,5.413574-1.268494,9.647705-2.749695,12.700317-1.485413,3.056763-4.059204,6.245361-7.725708,9.559875-10.303528,9.255981-15.45105,24.093201-15.45105,44.520264,0,24.617065,6.371094,41.815552,19.117554,51.591248ZM504.844971,505.850586c4.190125-4.885742,9.165955-7.332764,14.927368-7.332764,6.457092,0,11.956604,2.708923,16.498779,8.118408,4.537964,5.413696,6.809082,11.78479,6.809082,19.117554,0,12.046753-7.946777,18.070007-23.831543,18.070007-13.794006,0-20.688904-6.894775-20.688904-20.688782,0-6.633057,2.095032-12.39447,6.285217-17.284424Z" fill="none"/>
    <path d="M395.450562,320.761108c16.843506-.126709,30.546265-4.210022,41.105469-12.256165,3.4422-2.557983,6.243713-5.523621,8.412292-8.891602-.938293-3.514893-1.69519-7.136414-2.214722-10.887207l-.015076-.108643-.014526-.108826c-5.486267-41.276123-8.268127-83.77771-8.268127-126.323853,0-34.398804,1.751709-60.786133,5.353882-80.662903,1.141907-6.307434,2.626526-12.230713,4.419495-17.798218-2.53949-6.038574-7.953674-11.119934-16.252686-15.238586-8.361328-4.148254-20.208008-6.222412-35.542908-6.222412-16.970032,0-29.886292,3.393982-38.748413,10.182007-8.862122,6.788147-14.866638,18.855713-18.007202,36.202942-3.143616,17.347168-4.713867,41.859558-4.713867,73.53717,0,40.98175,2.639709,81.332947,7.919312,121.053467,1.758972,12.698242,7.666016,22.187866,17.724426,28.472168,9.551453,6.033691,21.872559,9.050659,36.957214,9.050659h1.885437Z" fill="none"/>
    <path d="M809.189087,311.052246c1.898132.016113,3.807312.024658,5.72821.024658,31.935181,0,67.144775-2.281067,104.648682-6.779602,11.542908-1.418335,20.254456-2.176086,27.061218-2.3479,9.046509-5.838074,16.180542-12.823975,21.377319-20.973816,7.852295-12.317993,11.782715-26.271179,11.782715-41.859558,0-24.762817-8.610718-43.052795-25.832275-54.869995-11.690552-7.919495-27.843567-14.141907-48.459167-18.667236-8.296509-1.88562-15.147461-3.865356-20.552673-5.939453-5.405334-2.074158-8.107971-5.247192-8.107971-9.522156,0-4.148254,2.576904-6.222351,7.730774-6.222351,4.022644,0,8.455872,1.573303,13.295471,4.713867,4.835327,3.143738,9.83429,4.713989,14.988159,4.713989,13.450378,0,26.775085-8.358398,39.97406-25.078125,7.919189-10.305603,11.879028-20.991638,11.879028-32.054688,0-9.804932-4.525391-18.855591-13.57605-27.152161-9.804932-8.92395-22.844666-15.994934-39.123474-21.212646-16.282898-5.214661-32.591064-7.825073-48.932678-7.825073-19.735596,0-36.609314,2.233337-50.625305,6.693726-14.019226,4.463623-24.796265,11.440125-32.338562,20.929871-7.542236,9.492676-11.313416,21.716431-11.313416,36.674255,0,20.24054,7.85437,36.580017,23.56958,49.024841,10.80957,8.549988,26.082642,16.657837,45.818237,24.32373,8.673645,3.394104,15.901611,6.66449,21.684021,9.805054,5.782532,3.143616,8.673584,6.852905,8.673584,11.124817,0,5.029175-3.331055,7.542236-9.993469,7.542236-11.313293,0-21.809692-6.284119-31.488892-18.855713-6.662415-8.673584-14.770264-13.010437-24.322815-13.010437-8.800415,0-18.667236,2.516296-29.603455,7.542297-19.986938,9.050781-29.98053,23.507874-29.98053,43.368103,0,14.70752,4.148254,29.037781,12.444763,42.990967,11.657471,19.392395,29.53418,33.681824,53.59491,42.898499Z" fill="none"/>
    <path d="M299.246704,288.617615l-.014526-.108948c-3.918518-29.480652-6.449463-59.587891-7.580444-89.889221-5.935059-5.872375-12.747559-11.295715-20.460144-16.259033-3.520752-2.262634-5.279541-5.091064-5.279541-8.485046,0-2.639893,1.319824-5.403198,3.959717-8.29657,8.712524-9.245544,15.859131-19.013184,21.474609-29.292419.691711-22.134827,2.333069-40.205017,4.971558-54.764465.792175-4.375549,1.759583-8.554565,2.865601-12.575073-1.540405-3.318604-3.513306-6.339417-5.930725-9.054138-6.664368-7.477356-17.851074-12.789368-33.563171-15.933044-5.656677-1.131348-11.062927-1.69696-16.215881-1.69696-26.524658,0-40.666382,11.501892-42.425232,34.505859-3.016907,40.2276-9.427856,67.191223-19.232788,80.89093-1.508545,2.012268-2.893311,3.016785-4.148254,3.016785-1.635193,0-2.451172-1.820496-2.451172-5.468079.123596-21.996155,1.508362-42.926025,4.148254-62.789368.500671-3.5177.75415-6.849854.75415-9.993591,0-6.033752-1.225647-12.161865-3.676819-18.384277-2.451355-6.222412-7.890137-11.407715-16.310303-15.555847-8.423157-4.148254-20.302246-6.222412-35.637207-6.222412-16.970093,0-29.88623,3.393982-38.748352,10.182007-8.862183,6.788147-14.866699,18.855713-18.007202,36.202942-3.143616,17.347168-4.713867,41.859558-4.713867,73.53717,0,40.98175,2.639709,81.332947,7.919312,121.053467,1.758789,12.698242,7.665894,22.187866,17.724426,28.472168,9.551453,6.033691,21.872498,9.050659,36.957031,9.050659,17.97467,0,32.305054-4.021484,42.990967-12.067627,9.301208-7.038391,13.953186-16.970154,13.953186-29.791992,0-3.771057-.503845-9.928528-1.508423-18.478516-1.885559-15.084534-2.828369-24.070435-2.828369-26.963745,0-4.775757,1.570251-7.1651,4.713989-7.1651,1.632019,0,3.644409.630676,6.033752,1.88562,6.157471,3.143616,10.936401,9.021362,14.330383,17.630005,3.393982,8.611877,5.562378,20.711853,6.505188,36.29718.94281,15.58844,7.321228,26.39801,19.13855,32.431763,8.169739,4.148254,17.535706,6.222412,28.09491,6.222412,4.648926,0,9.489624-.377075,14.518982-1.131348,11.814087-2.009216,21.336121-5.562378,28.566223-10.653503,1.200378-.845642,2.324524-1.734131,3.414062-2.642151-1.990906-5.536194-3.429626-11.415222-4.287354-17.607544l-.015076-.108948Z" fill="none"/>
    <path d="M125.437195,750.228638c-16.970154,0-29.88623,3.393982-38.748413,10.182007-8.862122,6.788147-14.866638,18.855713-18.007202,36.203064-3.143555,17.347229-4.713867,41.859619-4.713867,73.537048,0,40.98175,2.639771,81.332947,7.919373,121.053528,1.758789,12.698242,7.665833,22.18689,17.724365,28.472046,9.551331,6.033813,22.184692,9.050903,37.899902,9.050903,17.470764-.125732,31.488892-4.211182,42.048096-12.256348,9.301208-6.911621,13.953247-16.781494,13.953247-29.603394,0-2.134888-.377075-6.47168-1.131348-13.010376-1.508423-12.191284-2.262695-19.421387-2.262695-21.684082,0-4.902466,3.078796-7.477295,9.23938-7.730835,21.872498-1.00354,36.924622-4.397583,45.159302-10.182129,1.718323-1.206543,3.246582-2.567383,4.606384-4.064453-1.116333-17.687988-1.744202-35.480896-1.870117-53.295593-.426575-.383057-.867188-.747253-1.322144-1.09259-5.656677-4.148254-12.88678-6.222229-21.68396-6.222229-2.516174,0-5.156006.188477-7.919373.565552-4.024658.504944-7.669067.754272-10.936401.754272-4.778809,0-9.177429-.689331-13.198914-2.074097-4.024658-1.380676-6.033752-4.648926-6.033752-9.804932,0-7.288818,3.394043-11.814148,10.182007-13.576172,3.394043-.877869,7.730835-1.319824,13.010437-1.319824s11.437073.441956,18.478516,1.319824c3.267334.377075,6.411072.565613,9.427856.565613,3.440063,0,6.880127-.302002,10.32074-.88562.675232-22.539734,2.327148-40.888916,5.000671-55.641846,1.412781-7.803833,3.344299-15.026367,5.752441-21.695007-10.841003-6.306763-25.868652-10.75177-45.114807-13.321777-21.183289-2.82843-47.109863-4.242554-77.779724-4.242554Z" fill="none"/>
    <path d="M910.871765,754.471191c-21.185364-2.82843-47.109863-4.242554-77.781738-4.242554-16.970154,0-29.885193,3.393982-38.747498,10.182007-8.862122,6.788147-14.866516,18.855713-18.007202,36.203064-3.143616,17.347229-4.713867,41.859619-4.713867,73.537048,0,40.98175,2.639893,81.332947,7.919495,121.053528,1.758789,12.698242,7.665833,22.18689,17.724243,28.472046,9.551453,6.033813,22.185852,9.050903,37.898926,9.050903,37.585632,0,66.719727-1.288574,87.398132-3.865601,20.674194-2.574829,35.193115-7.416504,43.556641-14.518799,8.359375-7.10022,12.536987-17.441528,12.536987-31.017578,0-29.664185-13.450439-44.499512-40.351196-44.499512-5.028137,0-10.936279.565674-17.724426,1.697021-8.673584,1.508545-15.650146,2.262695-20.929749,2.262695-3.393982,0-6.758667-.406372-10.085693-1.225586-3.331238-.814941-4.99884-3.171997-4.99884-7.070923,0-2.888916,1.102051-4.963257,3.301758-6.22229,2.19574-1.254944,5.120544-2.074158,8.765869-2.451355,3.645447-.377075,7.730774-.626404,12.256287-.75415,6.913696-.123596,13.827454-.720642,20.74115-1.791321,6.913757-1.066406,12.759094-3.831848,17.535706-8.296509,4.776855-4.460388,7.165283-11.656921,7.165283-21.589722,0-12.444824-3.079834-20.99054-9.239258-25.643738-4.776855-3.517639-10.999146-5.279602-18.667175-5.279602-2.891174,0-7.03949.442139-12.444763,1.319824-6.662292,1.131348-12.0047,1.697083-16.027222,1.697083-3.771179,0-7.290955-.532104-10.559204-1.602661-3.268433-1.066406-4.902527-3.676941-4.902527-7.825195,0-6.660278,5.279602-9.993469,15.838806-9.993469,4.776794,0,11.376221.754272,19.798401,2.262634,6.410889,1.131348,12.004761,1.69696,16.781555,1.69696,6.285278,0,12.570435-.971985,18.855713-2.922546,6.285278-1.946411,11.501953-6.31665,15.650269-13.104675,4.148193-6.788086,6.22229-16.3396,6.22229-28.660645,0-13.699707-5.497437-24.229614-16.496704-31.583313-11.003296-7.35376-27.089294-12.444824-48.270447-15.273071Z" fill="none"/>
    <path d="M739.904114,996.583435l-.014526-.108765c-2.601074-19.569458-4.586548-39.41626-5.963562-59.410767-4.675171-1.488037-10.019287-2.238159-16.043274-2.238159-5.029175,0-10.936218.565674-17.724365,1.697021-8.673462,1.508545-15.650146,2.262695-20.929749,2.262695-3.393982,0-6.758789-.406372-10.087708-1.225586-3.332275-.814941-4.996826-3.171997-4.996826-7.070923,0-2.888916,1.098938-4.963257,3.299744-6.22229,2.197754-1.254944,5.120422-2.074158,8.767883-2.451355,3.644409-.377075,7.730774-.626404,12.256104-.75415,6.911743-.123596,13.826538-.720642,20.741333-1.791321,6.911743-1.066406,12.756958-3.831848,17.535767-8.296509,2.407288-2.248352,4.206543-5.19397,5.400818-8.832764-.309631-9.450378-.47467-18.917847-.509583-28.388977-1.540039-4.326538-3.860596-7.665405-6.965393-10.011719-4.778809-3.517639-11.001221-5.279602-18.667053-5.279602-2.893372,0-7.041626.442139-12.444824,1.319824-6.664368,1.131348-12.005859,1.697083-16.027344,1.697083-3.771057,0-7.29187-.532104-10.559021-1.602661-3.270569-1.066406-4.902527-3.676941-4.902527-7.825195,0-6.660278,5.279602-9.993469,15.838745-9.993469,4.775757,0,11.375244.754272,19.798401,2.262634,6.41095,1.131348,12.002686,1.69696,16.781616,1.69696,5.845947,0,11.692139-.852417,17.540588-2.5401.70575-21.779053,2.33844-39.599548,4.945862-53.98761,1.141296-6.303772,2.625-12.223755,4.416626-17.788513-.856323-.671814-1.737549-1.329163-2.673462-1.954956-11.001343-7.35376-27.090393-12.444824-48.270691-15.273071-21.183167-2.82843-47.109863-4.242554-77.779602-4.242554-16.970093,0-29.88623,3.393982-38.748535,10.182007-8.862122,6.788147-14.866638,18.855713-18.007019,36.203064-3.143738,17.347229-4.71405,41.859619-4.71405,73.537048,0,40.98175,2.639893,81.332947,7.919495,121.053528,1.758789,12.698242,7.665894,22.18689,17.724243,28.472046,9.551514,6.033813,22.184814,9.050903,37.900024,9.050903,37.584534,0,66.716675-1.288574,87.395996-3.865601,18.956482-2.360596,32.721375-6.63269,41.326416-12.799316-1.598022-4.879883-2.801697-10.000244-3.545471-15.370239l-.015076-.108643Z" fill="none"/>
    <path d="M743.060364,681.663696l-.021057-.161865c-2.412598-18.530151-4.442261-37.457825-6.097717-56.703674-1.586487,18.322083-3.662781,37.252441-6.235046,56.730591-1.798767,13.892578-5.978027,26.451721-12.36908,37.415405,17.003784,4.039185,31.074158,9.834412,42.61438,17.548462.079712.053284.156311.109131.235779.162659,1.36676-1.455261,2.798889-2.828857,4.266296-4.157959-11.98938-13.622559-19.614807-30.771667-22.371094-50.671936l-.022461-.161682Z" fill="none"/>
    <path d="M949.525879,341.910889c-5.413696,0-13.793945.699707-25.140869,2.095093-39.282654,4.713867-75.77478,7.070923-109.467712,7.070923-16.066162,0-31.255371-.523804-45.568909-1.57135-4.713989-.347839-8.556335-.523743-11.522949-.523743-17.11261,0-30.730591,5.237732-40.854004,15.712952-10.127686,10.475403-15.189331,28.545532-15.189331,54.210144,0,27.588013,5.147644,47.924927,15.451233,61.019104,8.904114,11.698914,23.831482,19.469543,44.782288,23.307678,3.838135.699829,6.416138,2.095093,7.725525,4.190308,1.309387,2.09491,1.964172,5.065857,1.964172,8.903992.695496,55.695557,4.362,109.033997,10.999207,160.011414,2.240234,16.174072,9.196106,28.516357,20.835632,37.050232,9.035828-2.090393,18.890198-3.158997,29.549866-3.158997,31.244751,0,58.411438,1.451599,80.827087,4.307434,1.518433-.987976,3.007629-2.012817,4.442505-3.106201,12.918152-9.775574,19.379395-23.655396,19.379395-41.639526,0-4.538025-.699707-11.956665-2.095093-22.260193-5.589661-45.567993-8.38031-87.731384-8.38031-126.490295,0-8.02832,2.183105-13.75,6.549255-17.15448,4.361938-3.404419,11.606689-5.715393,21.734253-6.938904,17.808228-2.442749,31.074219-10.647095,39.806519-24.617065,8.380249-13.265991,12.569336-30.378601,12.569336-51.329407,0-24.617065-5.672485-44.520325-17.019409-59.709717-9.60376-12.918152-23.397583-19.379395-41.377686-19.379395Z" fill="none"/>
    <path d="M519.481201,996.583435l-.014526-.108765c-3.227295-24.280762-5.510986-48.987061-6.850891-73.875671-3.562622-3.276489-7.543518-6.242188-11.950378-8.891541-2.262817-1.380676-3.394165-2.952026-3.394165-4.713867,0-2.009216,1.381775-4.020569,4.148315-6.033875,3.720093-2.698914,7.07074-5.675415,10.071289-8.9151-.194641-7.957886-.292358-15.92511-.292358-23.89386,0-34.398621,1.75177-60.78595,5.35376-80.662537.022095-.122009.049072-.238464.071411-.360168-2.955688-4.362244-6.385315-8.375488-10.301575-12.03009-15.965637-14.895996-38.40387-22.343994-67.314819-22.343994-15.461731,0-29.918762,2.767639-43.368103,8.29657-2.262695,1.00769-4.213196,1.508362-5.845215,1.508362-2.639893,0-5.344543-1.192017-8.107971-3.58252-8.29657-7.165222-22.564941-10.747742-42.802429-10.747742-17.096802,0-30.074768,3.393982-38.936951,10.182007-8.862244,6.788147-14.866638,18.855713-18.007202,36.203064-3.143738,17.347229-4.713989,41.859619-4.713989,73.537048,0,40.98175,2.701599,81.332947,8.108032,121.053528,1.758789,12.698242,7.509827,22.126099,17.25293,28.283569,9.73999,6.159424,22.217163,9.23938,37.428528,9.23938,17.847961,0,32.178284-4.083496,42.990906-12.256348,9.301208-6.911621,13.953247-16.781494,13.953247-29.603394,0-3.771118-.565613-9.928589-1.69696-18.478638-1.508423-11.69043-2.262695-19.167847-2.262695-22.438232,0-4.648926,1.632019-7.603027,4.902405-8.862305.877869-.376953,1.820679-.565552,2.82843-.565552,2.763306,0,5.718506,1.508545,8.862122,4.525391,8.043091,7.795776,12.883728,24.135254,14.518921,49.02478,1.004517,15.589478,7.415466,26.397949,19.232788,32.431763,8.169739,4.148315,17.535767,6.222534,28.094971,6.222534,4.648926,0,9.489563-.377197,14.518921-1.13147,15.711975-2.514038,27.841309-7.699463,36.391479-15.555908.178955-.164551.34491-.33667.520142-.503418-1.511536-4.722412-2.65625-9.667236-3.373291-14.84436l-.015076-.108643ZM409.875122,879.767151c-2.327576,2.767639-5.877686,4.148315-10.65332,4.148315-2.766663,0-5.091064-.94281-6.976624-2.82843-1.88562-1.885437-2.82843-4.902405-2.82843-9.050659,0-9.677185,3.393982-14.518799,10.182129-14.518799,4.52533,0,7.948669,1.353333,10.276245,4.053894,2.324585,2.704773,3.488403,5.751038,3.488403,9.14502,0,3.270447-1.163818,6.287354-3.488403,9.050659Z" fill="none"/>
    <path d="M524.196472,736.948303c-.544983.613525-1.117615,1.20282-1.681946,1.799377,3.522949,2.537476,6.894165,5.276978,10.115356,8.213074.41394-.62207.841614-1.227295,1.268921-1.833252-.211304-.15686-.432434-.302185-.642334-.460632-3.219421-2.42981-6.241333-5.004883-9.059998-7.718567Z" fill="none"/>
  </g>
  <g id="b" data-name="Layer 16">
    <path d="M167.830872,751.28656c-1.252563-1.333679-2.47998-2.679443-3.697388-4.029907-3.392456,1.30426-6.880127,2.449402-10.538696,3.414734,4.891663.161438,9.642029.36499,14.236084.615173Z"/>
    <path d="M1029.225952,493.605469c12.406616-19.682007,18.697021-44.109131,18.697021-72.605469,0-33.322144-8.402466-61.465698-24.973633-83.648804-7.822021-10.500061-17.416992-18.811279-28.560059-24.771057,2.651123-3.222534,5.103027-6.587158,7.342163-10.098816,11.981812-18.795837,18.055786-40.113708,18.055786-63.365295,0-43.552368-19.252075-69.164429-37.520508-83.658813.652222-.79541,1.303467-1.605042,1.952881-2.427734l.161865-.205078.159302-.207214c13.378296-17.409973,20.161865-36.394775,20.161865-56.427307,0-14.736694-4.605591-36.525208-26.546875-56.638123l-.05249-.048157-.05249-.047852c-14.028198-12.767761-32.14209-22.767639-53.838562-29.721863-20.171387-6.4599-40.739258-9.733887-61.141785-9.733887-23.756897,0-44.870911,2.885864-62.75531,8.577332-21.654907,6.894653-38.987854,18.386658-51.522827,34.158264-4.073364,5.126709-7.523987,10.634521-10.35907,16.499634-9.126465-11.898193-20.0625-21.995422-32.767761-30.162292-23.018005-14.788757-51.576538-22.284912-84.889465-22.284912-11.734436,0-23.174072,1.514771-34.157288,4.513916-13.59906-6.067871-30.272888-9.039246-50.5047-9.039246-26.012817,0-47.29657,6.199585-63.259888,18.426636-2.38031,1.823242-4.632751,3.809326-6.781921,5.924744-5.643188-5.370361-12.415344-10.039246-20.313782-13.959106-14.096375-6.993774-31.537598-10.392273-53.324768-10.392273-25.887878,0-47.108154,6.199707-63.071472,18.426819-3.49176,2.674561-6.721375,5.682983-9.714844,8.98468-12.49231-12.247375-29.585632-20.43042-52.109985-24.937134-8.210266-1.64209-16.305359-2.474365-24.063599-2.474365-22.078796,0-40.467346,5.634644-54.680542,16.750244-3.26886-2.250183-6.915771-4.405396-10.984497-6.409851-14.130066-6.958801-31.567749-10.340393-53.314331-10.340393-25.887817,0-47.108093,6.199707-63.071411,18.426819-16.972534,13.000488-28.090149,33.467468-33.044312,60.832397-3.602112,19.877197-5.353699,46.264526-5.353699,80.662903,0,42.546814,2.781738,85.048401,8.268005,126.323853l.014526.108826.015076.108643c3.401001,24.554626,15.878967,44.217285,36.088074,56.86792.126038.079346.256897.151978.383362.230713.240417-.177795.465515-.367065.709778-.541931,6.345642-5.254517,13.415527-8.77887,21.194519-10.609619-3.468262-6.290833-.306335-16.442322,7.845886-16.565186,1.369873-.020691,2.748047-.089233,4.129211-.171021.059021-.113892.117615-.227844.180664-.339661-4.855896-1.460144-9.263245-3.409241-13.185364-5.886902-10.058533-6.284302-15.965637-15.773926-17.724426-28.472168-5.279602-39.72052-7.919312-80.071716-7.919312-121.053467,0-31.677612,1.570251-56.190002,4.713867-73.53717,3.140503-17.347229,9.14502-29.414795,18.007202-36.202942,8.862122-6.788025,21.778259-10.182007,38.748352-10.182007,15.334961,0,27.21405,2.074158,35.637207,6.222412,8.420166,4.148132,13.858948,9.333435,16.310303,15.555847,2.451172,6.222412,3.676819,12.350525,3.676819,18.384277,0,3.143738-.253479,6.475891-.75415,9.993591-2.639893,19.863342-4.024658,40.793213-4.148254,62.789368,0,3.647583.815979,5.468079,2.451172,5.468079,1.254944,0,2.639709-1.004517,4.148254-3.016785,9.804932-13.699707,16.215881-40.66333,19.232788-80.89093,1.75885-23.003967,15.900574-34.505859,42.425232-34.505859,5.152954,0,10.559204.565613,16.215881,1.69696,15.712097,3.143677,26.898804,8.455688,33.563171,15.933044,2.417419,2.714722,4.39032,5.735535,5.930725,9.054138-1.106018,4.020508-2.073425,8.199524-2.865601,12.575073-2.638489,14.559448-4.279846,32.629639-4.971558,54.764465-5.615479,10.279236-12.762085,20.046875-21.474609,29.292419-2.639893,2.893372-3.959717,5.656677-3.959717,8.29657,0,3.393982,1.758789,6.222412,5.279541,8.485046,7.712585,4.963318,14.525085,10.386658,20.460144,16.259033,1.130981,30.301331,3.661926,60.408569,7.580444,89.889221l.014526.108948.015076.108948c.857727,6.192322,2.296448,12.07135,4.287354,17.607544-1.089539.90802-2.213684,1.796509-3.414062,2.642151-7.230103,5.091125-16.752136,8.644287-28.566223,10.653503-5.029358.754272-9.870056,1.131348-14.518982,1.131348-10.559204,0-19.925171-2.074158-28.09491-6.222412-11.817322-6.033752-18.19574-16.843323-19.13855-32.431763-.94281-15.585327-3.111206-27.685303-6.505188-36.29718-3.393982-8.608643-8.172913-14.486389-14.330383-17.630005-2.389343-1.254944-4.401733-1.88562-6.033752-1.88562-3.143738,0-4.713989,2.389343-4.713989,7.1651,0,2.893311.94281,11.879211,2.828369,26.963745,1.004578,8.549988,1.508423,14.707458,1.508423,18.478516,0,12.821838-4.651978,22.753601-13.953186,29.791992-8.419434,6.3396-19.111572,10.169434-32.055847,11.513611.27063.451416.523804.921204.736511,1.430359.735107,1.759399.932312,3.740051.672241,5.67041,2.06134-.377502,4.122498-.757446,6.184387-1.13269,15.858704-2.88623,31.456238-4.295715,47.571777-4.489624,8.143555-.098022,16.137512-.261353,24.192017,1.002563,9.988525,1.567444,19.848389,4.31012,29.533997,7.111877,10.657532,3.082886,20.973511,7.282837,31.485413,10.813782,8.138977,2.733948,15.258789,7.515137,21.319275,13.46051,1.204102-.407776,2.397949-.825928,3.569275-1.266663,1.272156-6.697449,3.129395-13.270752,5.54248-19.598877.037903-1.451782.097412-2.89978.202637-4.336243.72876-9.224121,3.652344-17.573364,8.770752-25.047729,3.822937-8.436646,9.585754-15.41156,17.288513-20.924561,1.541443-1.276367,3.132629-2.433899,4.758606-3.50824-4.944702-38.479004-7.424561-77.546875-7.424561-117.207153,0-31.677612,1.570251-56.190002,4.713867-73.53717,3.140564-17.347229,9.145081-29.414795,18.007202-36.202942,8.862122-6.788025,21.778381-10.182007,38.748413-10.182007,15.3349,0,27.18158,2.074158,35.542908,6.222412,8.299011,4.118652,13.713196,9.200012,16.252686,15.238586-1.792969,5.567505-3.277588,11.490784-4.419495,17.798218-3.602173,19.87677-5.353882,46.264099-5.353882,80.662903,0,33.415955,1.7229,66.801758,5.118774,99.590027,8.368469,2.238525,16.122009,6.019531,23.25415,11.359314,4.24353,4.192444,8.487061,8.384888,12.730591,12.577271,2.659973.922729,5.287842,1.890808,7.879028,2.906921-.438599-1.72821-.804382-3.512695-1.063049-5.380066-5.279602-39.72052-7.919495-80.071716-7.919495-121.053467,0-31.677612,1.570251-56.190002,4.713989-73.53717,3.140564-17.347229,9.144958-29.414795,18.00708-36.202942,8.862244-6.788025,21.840271-10.182007,38.937073-10.182007,18.478516,0,31.927856,3.016907,40.351196,9.050659,2.386292,1.635193,4.837463,2.451233,7.353699,2.451233,1.381653,0,2.890137-.312134,4.525391-.942688,10.181946-4.021606,20.991577-6.033875,32.431702-6.033875,25.643738,0,46.729614,5.312012,63.260803,15.933044,16.528137,10.624146,28.754944,25.926575,36.674255,45.913635,5.967896,15.061646,9.684692,32.518372,11.155334,52.362305-1.748352,1.516602-3.416199,3.093628-5.017883,4.718994,12.895569,5.267761,25.334656,12.385132,36.970703,21.161255,2.817749-1.848816,5.916565-3.545593,9.31073-5.082581,10.936218-5.026001,20.80304-7.542297,29.603455-7.542297,9.552551,0,17.6604,4.336853,24.322815,13.010437,9.679199,12.571594,20.175598,18.855713,31.488892,18.855713,6.662415,0,9.993469-2.513062,9.993469-7.542236,0-4.271912-2.891052-7.981201-8.673584-11.124817-5.78241-3.140564-13.010376-6.41095-21.684021-9.805054-19.735596-7.665894-35.008667-15.773743-45.818237-24.32373-15.71521-12.444824-23.56958-28.784302-23.56958-49.024841,0-14.957825,3.771179-27.18158,11.313416-36.674255,7.542297-9.489746,18.319336-16.466248,32.338562-20.929871,14.015991-4.460388,30.889709-6.693726,50.625305-6.693726,16.341614,0,32.64978,2.610413,48.932678,7.825073,16.278809,5.217712,29.318542,12.288696,39.123474,21.212646,9.050659,8.29657,13.57605,17.347229,13.57605,27.152161,0,11.063049-3.959839,21.749084-11.879028,32.054688-13.198975,16.719727-26.523682,25.078125-39.97406,25.078125-5.15387,0-10.152832-1.570251-14.988159-4.713989-4.8396-3.140564-9.272827-4.713867-13.295471-4.713867-5.15387,0-7.730774,2.074097-7.730774,6.222351,0,4.274963,2.702637,7.447998,8.107971,9.522156,5.405212,2.074097,12.256165,4.053833,20.552673,5.939453,20.615601,4.52533,36.768616,10.747742,48.459167,18.667236,17.221558,11.8172,25.832275,30.107178,25.832275,54.869995,0,15.588379-3.93042,29.541565-11.782715,41.859558-5.196777,8.149841-12.330811,15.135742-21.377319,20.973816-6.806763.171814-15.518311.929565-27.061218,2.3479-9.218933,1.105774-21.740295,8.471741-30.665833,9.307312,4.450562,7.611633,7.321533,15.884521,8.608093,24.82074l.174866,14.529236c7.636841-.752686,18.838989-8.005066,26.701904-8.948608,11.346924-1.395386,19.727173-2.095093,25.140869-2.095093,17.980103,0,31.773926,6.461243,41.377686,19.379395,11.346924,15.189392,17.019409,35.092651,17.019409,59.709717,0,20.950806-4.189087,38.063416-12.569336,51.329407-8.7323,13.969971-21.998291,22.174316-39.806519,24.617065-10.127563,1.223511-17.372314,3.534485-21.734253,6.938904-4.36615,3.40448-6.549255,9.12616-6.549255,17.15448,0,38.758911,2.790649,80.922302,8.38031,126.490295,1.395386,10.303528,2.095093,17.722168,2.095093,22.260193,0,17.984131-6.461243,31.863953-19.379395,41.639526-1.434875,1.093384-2.924072,2.118225-4.442505,3.106201-22.415649-2.855835-49.582336-4.307434-80.827087-4.307434-1.358704,0-2.703552.018311-4.036072.052917-21.463623,34.574463-53.69696,65.926147-93.952087,91.440735-1.535217,11.927063-2.554565,25.77002-3.07251,41.753052-5.84845,1.687683-11.694641,2.5401-17.540588,2.5401-4.778931,0-10.370667-.565613-16.781616-1.69696-8.423157-1.508362-15.022644-2.262634-19.798401-2.262634-10.559143,0-15.838745,3.333191-15.838745,9.993469,0,4.148254,1.631958,6.758789,4.902527,7.825195,3.267151,1.070557,6.787964,1.602661,10.559021,1.602661,4.021484,0,9.362976-.565735,16.027344-1.697083,5.403198-.877686,9.551453-1.319824,12.444824-1.319824,7.665833,0,13.888245,1.761963,18.667053,5.279602,3.104797,2.346313,5.425354,5.685181,6.965393,10.011719.034912,9.47113.199951,18.938599.509583,28.388977-1.194275,3.638794-2.99353,6.584412-5.400818,8.832764-4.778809,4.464661-10.624023,7.230103-17.535767,8.296509-6.914795,1.070679-13.82959,1.667725-20.741333,1.791321-4.52533.127747-8.611694.377075-12.256104.75415-3.647461.377197-6.570129,1.196411-8.767883,2.451355-2.200806,1.259033-3.299744,3.333374-3.299744,6.22229,0,3.898926,1.664551,6.255981,4.996826,7.070923,3.328918.819214,6.693726,1.225586,10.087708,1.225586,5.279602,0,12.256287-.75415,20.929749-2.262695,6.788147-1.131348,12.69519-1.697021,17.724365-1.697021,6.023987,0,11.368103.750122,16.043274,2.238159,1.377014,19.994507,3.362488,39.841309,5.963562,59.410767l.014526.108765.015076.108643c.743774,5.369995,1.947449,10.490356,3.545471,15.370239-8.605042,6.166626-22.369934,10.438721-41.326416,12.799316-20.679321,2.577026-49.811462,3.865601-87.395996,3.865601-15.71521,0-28.348511-3.01709-37.900024-9.050903-10.05835-6.285156-15.965454-15.773804-17.724243-28.472046-5.279602-39.720581-7.919495-80.071777-7.919495-121.053528,0-1.570923.006897-3.110474.014648-4.646179-13.261414,1.695129-26.623901,2.85675-40.010925,3.48877-.000427.389404-.003723.76593-.003723,1.15741,0,7.96875.097717,15.935974.292358,23.89386-3.000549,3.239685-6.351196,6.216187-10.071289,8.9151-2.766541,2.013306-4.148315,4.024658-4.148315,6.033875,0,1.761841,1.131348,3.333191,3.394165,4.713867,4.40686,2.649353,8.387756,5.615051,11.950378,8.891541,1.339905,24.888611,3.623596,49.59491,6.850891,73.875671l.014526.108765.015076.108643c.717041,5.177124,1.861755,10.121948,3.373291,14.84436-.175232.166748-.341187.338867-.520142.503418-8.550171,7.856445-20.679504,13.04187-36.391479,15.555908-5.029358.754272-9.869995,1.13147-14.518921,1.13147-10.559204,0-19.925232-2.074219-28.094971-6.222534-11.817322-6.033813-18.228271-16.842285-19.232788-32.431763-1.635193-24.889526-6.47583-41.229004-14.518921-49.02478-3.143616-3.016846-6.098816-4.525391-8.862122-4.525391-1.007751,0-1.950562.188599-2.82843.565552-3.270386,1.259277-4.902405,4.213379-4.902405,8.862305,0,3.270386.754272,10.747803,2.262695,22.438232,1.131348,8.550049,1.69696,14.70752,1.69696,18.478638,0,12.821899-4.652039,22.691772-13.953247,29.603394-10.812622,8.172852-25.142944,12.256348-42.990906,12.256348-15.211365,0-27.688538-3.079956-37.428528-9.23938-9.743103-6.157471-15.494141-15.585327-17.25293-28.283569-5.406433-39.720581-8.108032-80.071777-8.108032-121.053528,0-16.077515.406494-30.300476,1.215881-42.686584-13.489319-6.039429-26.328369-12.612305-38.456238-19.685059-1.187378,10.923645-1.986267,23.32489-2.406433,37.350708-3.440613.583618-6.880676.88562-10.32074.88562-3.016785,0-6.160522-.188538-9.427856-.565613-7.041443-.877869-13.198914-1.319824-18.478516-1.319824s-9.616394.441956-13.010437,1.319824c-6.787964,1.762024-10.182007,6.287354-10.182007,13.576172,0,5.156006,2.009094,8.424255,6.033752,9.804932,4.021484,1.384766,8.420105,2.074097,13.198914,2.074097,3.267334,0,6.911743-.249329,10.936401-.754272,2.763367-.377075,5.403198-.565552,7.919373-.565552,8.79718,0,16.027283,2.073975,21.68396,6.222229.454956.345337.895569.709534,1.322144,1.09259.125916,17.814697.753784,35.607605,1.870117,53.295593-1.359802,1.49707-2.888062,2.85791-4.606384,4.064453-8.23468,5.784546-23.286804,9.178589-45.159302,10.182129-6.160583.25354-9.23938,2.828369-9.23938,7.730835,0,2.262695.754272,9.492798,2.262695,21.684082.754272,6.538696,1.131348,10.875488,1.131348,13.010376,0,12.821899-4.652039,22.691772-13.953247,29.603394-10.559204,8.045166-24.577332,12.130615-42.048096,12.256348-15.71521,0-28.348572-3.01709-37.899902-9.050903-10.058533-6.285156-15.965576-15.773804-17.724365-28.472046-5.279602-39.720581-7.919373-80.071777-7.919373-121.053528,0-31.677429,1.570312-56.189819,4.713867-73.537048,3.140564-17.347351,9.145081-29.414917,18.007202-36.203064,5.679626-4.350342,13.033447-7.299133,22.043274-8.861389-4.720886-1.009521-9.474731-2.276794-14.367188-3.711304-10.967407-3.215759-21.349243-10.031372-31.017822-15.588135-1.052551-.604919-2.095947-1.225098-3.140503-1.843384-15.750916,13.055237-26.145691,32.902527-30.885071,59.081543-3.602112,19.877197-5.35376,46.264404-5.35376,80.662781,0,42.546814,2.781738,85.048401,8.268005,126.323914l.014526.108765.015076.108643c3.399475,24.543701,15.868347,44.200073,36.063171,56.852295,15.98761,10.075073,35.898376,15.182861,59.182861,15.182861h.143982l.14386-.001099c26.144836-.18811,48.282227-7.013184,65.80249-20.286499,19.290588-14.423096,29.911011-36.279907,29.911011-61.572144,0-1.74707-.080811-3.731812-.258606-6.15979,7.341858-1.511108,13.891113-3.464966,19.756348-5.877441.812927,7.289062,1.705688,14.548706,2.688416,21.768677l.006287.046631.006531.046509c3.393188,24.499023,15.670837,44.073975,35.505188,56.609131,16.1828,10.233887,35.968567,15.426025,58.798035,15.426025,26.601196,0,49.133362-6.810791,66.973145-20.242798.651428-.486084,1.291687-.979614,1.923279-1.482422,4.784546,4.317627,10.21283,8.048584,16.243286,11.127686l.039612.020264.039734.020142c13.795837,7.005249,29.341431,10.557129,46.205078,10.557129,6.607178,0,13.487976-.529541,20.451416-1.573975l.193909-.029053.19342-.030884c21.077087-3.372559,38.690063-10.650635,52.47998-21.638306,3.308289,2.943726,6.906006,5.648438,10.797852,8.087036,15.988098,10.076172,35.900879,15.185181,59.186646,15.185181,39.606506,0,69.812134-1.36499,92.342529-4.172729,24.94342-3.106201,44.088135-9.339111,58.233521-18.971191,3.269592,2.89502,6.823669,5.55481,10.660217,7.95874,15.988159,10.076172,35.900513,15.185181,59.185608,15.185181,39.60907,0,69.815369-1.36499,92.344971-4.172729,28.833557-3.590942,49.933411-11.350708,64.50177-23.722168,12.15686-10.325684,26.64502-29.375977,26.64502-61.50708,0-25.004761-6.882324-45.273315-20.455566-60.242615-1.97998-2.183594-4.290039-4.449158-6.965088-6.680603,1.912354-6.558594,3.096802-14.187134,3.096802-23.018433,0-8.920654-1.070312-16.679565-2.862061-23.4151,4.532349-4.344788,8.584961-9.406616,12.077637-15.121582,8.136353-13.314819,12.091309-29.51239,12.091309-49.519348,0-27.037476-12.168823-50.063354-34.264771-64.836121-6.2771-4.195068-13.305786-7.81958-21.138916-10.908142,11.512939-15.399841,17.503784-34.309082,17.503784-55.792969,0-6.426575-.77002-15.129028-2.421875-27.369263-4.655151-38.008057-7.311279-73.89447-7.918579-106.913025,26.584229-5.220703,47.867798-19.614014,61.827393-41.902588ZM975.638916,801.327576c0,12.321045-2.074097,21.872559-6.22229,28.660645-4.148315,6.788025-9.36499,11.158264-15.650269,13.104675-6.285278,1.950562-12.570435,2.922546-18.855713,2.922546-4.776794,0-10.370667-.565613-16.781555-1.69696-8.42218-1.508362-15.021606-2.262634-19.798401-2.262634-10.559204,0-15.838806,3.333191-15.838806,9.993469,0,4.148254,1.634094,6.758789,4.902527,7.825195,3.26825,1.070557,6.788025,1.602661,10.559204,1.602661,4.022522,0,9.364929-.565735,16.027222-1.697083,5.405273-.877686,9.553589-1.319824,12.444763-1.319824,7.66803,0,13.89032,1.761963,18.667175,5.279602,6.159424,4.653198,9.239258,13.198914,9.239258,25.643738,0,9.9328-2.388428,17.129333-7.165283,21.589722-4.776611,4.464661-10.621948,7.230103-17.535706,8.296509-6.913696,1.070679-13.827454,1.667725-20.74115,1.791321-4.525513.127747-8.61084.377075-12.256287.75415-3.645325.377197-6.570129,1.196411-8.765869,2.451355-2.199707,1.259033-3.301758,3.333374-3.301758,6.22229,0,3.898926,1.667603,6.255981,4.99884,7.070923,3.327026.819214,6.691711,1.225586,10.085693,1.225586,5.279602,0,12.256165-.75415,20.929749-2.262695,6.788147-1.131348,12.696289-1.697021,17.724426-1.697021,26.900757,0,40.351196,14.835327,40.351196,44.499512,0,13.57605-4.177612,23.917358-12.536987,31.017578-8.363525,7.102295-22.882446,11.94397-43.556641,14.518799-20.678406,2.577026-49.8125,3.865601-87.398132,3.865601-15.713074,0-28.347473-3.01709-37.898926-9.050903-10.058411-6.285156-15.965454-15.773804-17.724243-28.472046-5.279602-39.720581-7.919495-80.071777-7.919495-121.053528,0-31.677429,1.570251-56.189819,4.713867-73.537048,3.140686-17.347351,9.145081-29.414917,18.007202-36.203064,8.862305-6.788025,21.777344-10.182007,38.747498-10.182007,30.671875,0,56.596375,1.414124,77.781738,4.242554,7.404175.988647,14.171387,2.260193,20.330872,3.80188-.283081-1.181152-.564697-2.364319-.854431-3.539062-.851624-3.452881.673767-6.928955,3.246155-9.37207,2.371765-3.1474,6.774902-4.917236,10.488525-4.645203,4.643188.340149,7.618408,3.597961,8.905518,7.549011,2.816406,2.772766,4.62207,6.268799,4.104248,10.884949-.199463,1.777527-.756104,3.421936-1.546997,4.967773.521851,1.494446,1.120972,2.986877,1.807495,4.486084.60791.374817,1.209473.75238,1.789062,1.139709,10.999268,7.353699,16.496704,17.883606,16.496704,31.583313Z" fill="#fff"/>
    <path d="M170.156464,753.740967c28.455658,29.550903,65.631989,54.829346,109.742828,74.382629,60.980469,27.030273,131.145508,41.34668,202.913574,41.405273,1.705566.017578,3.395996.026367,5.102539.026367,75.229004-.001953,151.05127-17.356445,214.060059-49.073242,66.333984-33.391602,116.236328-81.453125,140.513672-135.332031,16.574219-36.783203,21.244141-74.956055,13.878906-113.456055-7.139648-37.325195-25.499023-73.477539-54.611328-107.581543.433594-.162598.866211-.32959,1.297852-.500488,7.77832-3.078125,15.041016-7.331055,21.55957-12.606934.541016-.134766,1.103516-.281738,1.685547-.443848,6.749023-1.741699,18.947266-5.687988,30.370117-13.512695,21.076172-13.995117,33.941406-36.378906,36.250977-63.09668,1.829102-21.165039-3.149414-43.255371-14.020508-62.200684l-.15625-.269531c-11.459961-19.616699-25.874023-32.361816-44.061523-38.957031-2.482422-.912598-5.310547-1.717773-8.392578-2.356445-7.951172-20.866699-19.970703-40.749512-35.379883-58.169922-26.3125-29.748047-60.070312-49.329102-95.092773-55.169922-71.93457-13.02002-150.003906,27.237305-181.837891,93.795898-7.012695,14.296387-11.856445,29.48877-14.501953,45.035156-9.695312-4.723633-19.936523-8.871582-30.734863-12.180664-46.98877-16.358398-85.86084-16.185059-118.774414.502441-20.708862,10.469849-34.850281,28.632477-42.74408,49.52594l40.325134,48.521606-9.159851,69.011292-29.136475,32.630615c1.504364,17.083008,3.008759,34.166016,4.513123,51.249023-3.405609,12.539551-6.811249,25.079041-10.216858,37.618591l38.292114,49.320618c2.833252,8.441528,6.135254,21.643799,5.707947,37.979736-.365234,13.963684-3.327911,25.34668-6.025085,33.144165-7.117737,12.901611-15.529663,42.804016-41.510132,46.184448-5.993073.779785-129.857513,14.573914-129.857513,14.573914Z" fill="none" stroke="#fff" stroke-miterlimit="10" stroke-width="20"/>
  </g>
  <circle cx="307.5617" cy="526.815833" r="7.547709" fill="#ffe98a" stroke="#ffe98a" stroke-miterlimit="10"/>
  <g>
    <g>
      <path d="M459.921509,603.108154l.186951-.463745c-.093506.231873-.186951.463745-.186951.463745Z" fill="none" stroke="#fff" stroke-miterlimit="10"/>
      <path d="M334.185974,682.582581c-3.04718-5.186523-5.348633-10.661926-6.885193-16.275818-.66156,8.611938-2.69165,16.16449-6.071777,22.670898,6.743835,1.439941,13.508484,2.781738,20.295105,4.004944-2.748291-3.24939-5.306946-6.651367-7.338135-10.400024Z" fill="none" stroke="#fff" stroke-miterlimit="10"/>
      <path d="M212.106262,583.442017c1.721802-.824341,3.258789-2.033386,4.573364-3.763489-1.037842.08905-2.059265.182861-3.05011.2854-4.377136.452515-7.99884,1.365601-10.872864,2.729309,3.058594.639771,6.202515.884521,9.349609.748779Z" fill="none" stroke="#fff" stroke-miterlimit="10"/>
      <path d="M742.630737,378.10498c1.592163-3.784363,3.301758-7.673218,6.516479-10.428589,2.001953-1.792664,4.547119-3.026001,7.156006-3.590393.757568-.226196,3.112549-.891541,3.917969-1.13031,14.929932-4.695862,28.525269-15.410583,33.494507-30.677307.847412-2.657288,1.483643-5.416443,1.886963-8.177307.457947-2.845581.120667-5.759949.699951-8.553955-.048035.005554-.169678.019592-.169678.019592-8.859863-65.11554-69.114929-125.548096-137.376099-117.971008-67.854431,6.689209-120.52002,64.518372-116.254517,133.222961.569397,12.05719,2.735596,24.134583,6.745728,35.528137,2.945862,7.843567,6.966003,15.299194,9.738708,23.302673,4.317444,12.669189,4.173157,26.644165.668335,39.189087-3.015686,11.164734-9.47644,20.90509-16.486633,29.841187.000061.000061-.830444-.556946-.830444-.556946,5.533508-9.746094,10.760498-19.691956,12.54834-30.396545,2.133972-11.79248,1.326782-24.26239-3.200867-35.335815-.871887-2.127686-1.849121-4.217773-2.872192-6.292847-12.486877-.681213-24.904724-1.145081-37.305603-1.216125-63.467163.231018-127.789978,5.922668-188.190308,26.10199.012939.545959.041687,1.082764.041687,1.636169,0,17.11261-2.880737,30.378601-8.642151,39.806458-5.761536,9.427856-13.008484,15.495239-21.73645,18.200012-8.7323,2.708923-17.460327,4.060303-26.188477,4.060303-6.637207,0-14.403687-.785706-23.307678-2.357056-4.82428-.863953-9.210754-1.546814-13.173584-2.054504-1.625732,4.996765-2.651306,10.188354-2.830933,15.446045-.130249,2.270203.020325,4.541321.246765,6.823059l-.980042.19873c-2.036438-7.484863-1.974365-15.343201-.479309-22.941345-3.921021-.409241-7.349304-.614624-10.280762-.614624-.194458,0-.373291.009888-.565186.011536-.165161.460083-.336609.919495-.496643,1.379333-2.789673,8.160522-4.425659,16.504761-4.58313,25.255981,0,0-.128296.023193-.26355.047668,1.752747.182861,3.546021.279663,5.384644.279663,3.278687,0,7.207092-.278503,11.749878-.819946-.159973-.789062-.307495-1.581055-.426819-2.379211-.000061.000061.985596-.169128.985596-.169128.155701.812927.340576,1.61731.538818,2.417542,2.893921-.364502,6.027466-.831543,9.41272-1.406189,7.504578-1.21936,13.266113-1.833252,17.284424-1.833252,10.647095,0,19.289429,2.447083,25.926514,7.332764,8.552124,6.461243,12.832458,18.331848,12.832458,35.616333,0,13.794006-3.318665,23.789551-9.951721,29.984619-6.637207,6.199402-14.755554,10.041687-24.355225,11.523071-7.114624,1.100403-14.229309,1.839966-21.342163,2.220337-11.082275,8.928711-26.523315,12.532959-40.271973,8.573914-.640259,1.362671-.976196,2.950989-.976196,4.788818,0,5.413696,2.31189,8.686157,6.93988,9.819702,4.62384,1.137512,9.296936,1.703247,14.010742,1.703247,7.332764,0,17.022644-1.047546,29.069275-3.142639,9.427795-1.571228,17.632141-2.356934,24.617188-2.356934,6.40509,0,12.24762.620667,17.55481,1.831848,1.419556-3.561035,2.964783-7.069214,4.677856-10.496399l.564514.203369c-.876038,3.657837-1.702942,7.319824-2.505981,10.984436,18.55365,5.162231,29.885254,18.290894,33.990417,39.387573,1.236633-7.784058,3.993713-15.402344,8.359436-22.473877,8.334351-13.541931,21.828247-23.997803,37.146423-28.366333,5.008972-1.474792,10.391052-2.175781,15.523254-2.277466,15.210266-.49408,30.424988,1.442261,45.114197,5.296448,9.725769,2.555481,19.198669,5.966919,28.364502,10.05719v-.000061c37.587219,12.358276,71.064148,36.116516,98.215698,64.723938,7.33606,7.412354,13.327209,16.635925,16.253113,26.753357,1.13501,3.757751,1.885315,7.600342,2.2854,11.470581,20.566223-2.953308,40.999084-6.800659,61.234619-11.508606-.132935-2.127808-.287842-4.2547-.480957-6.379578-.466248-5.209473-1.268005-10.381409-2.192627-15.514709-1.649719-9.065552-3.887756-21.876709-5.831116-30.781555-1.093689-5.137634-2.269775-10.275635-3.331482-15.518921l.560913-.213013c5.305664,9.324463,9.013733,19.474182,11.677307,29.848145,2.692505,10.394714,3.454834,21.17688,3.906372,31.860718.080688,1.880554.125549,3.762939.153748,5.645874,27.912292-6.677185,55.439575-14.981995,82.415222-24.808716-.168945-2.481201-.431152-4.955139-.726746-7.418274-.788818-6.642883-1.155273-13.250244-1.515198-19.946655-.176147-3.364624-.354614-6.748474-.305542-10.234009l.58313-.140991c3.193726,6.179199,5.073669,12.876831,6.281006,19.68158.972473,5.336426.958069,10.768799.783081,16.175903,17.480225-6.508728,34.722412-13.656433,51.682129-21.413208-1.474304-9.121216-4.153015-17.856018-6.702942-26.732666-.000305.000061-3.208496-9.929932-3.208496-9.929932l.512085-.312744c5.069153,5.109802,8.681091,11.486877,11.21167,18.192505,2.030151,5.263062,2.816284,10.875488,3.172729,16.484253,1.680664-.783081,3.360901-1.567017,5.035828-2.362061,7.835693-3.75708,15.627991-7.61438,23.354187-11.606201,4.491943-27.76593,1.034851-56.52002-10.72937-83.417908-9.395264-22.136292-23.151794-42.248718-38.914978-60.380798l-.348694.42157c-2.099976-3.700012-4.340027-7.340027-6.669983-10.909973-1.359985-1.390015-2.530029-3.210022-3.76001-5.240051,0,0-2.429993-3.529968-4.220032-6.469971-1.009949-1.650024-1.539978-5.27002-1.569946-10.440002-.053894-6.899353.758728-16.548462,2.453674-27.913452-.17865-.174988-.361572-.343262-.536743-.523743-11.677429-11.582336-14.269531-30.212158-8.391724-45.21637ZM493.819153,517.13739c-33.052307,16.466431-73.075317,18.595764-107.744446,6.034424-13.787659-5.146851-26.63385-12.674011-37.657837-22.230164l.377747-.466187c22.883789,17.545288,51.884583,26.657227,80.617371,25.879028,14.314636-.320068,28.372131-3.273926,42.202515-6.800781,13.859863-3.569092,27.392456-8.478943,40.748474-14.326843l.305054.516663c-5.852905,4.439087-12.244507,8.141541-18.848877,11.39386ZM720.966492,608.554565c-3.637085,1.215637-6.934631,3.4198-9.326233,6.461975-3.794006,4.71875-5.223083,10.771484-5.905518,16.644287-.492859,2.880432-4.117981,3.668396-5.662781,1.042419-.302612-.456055-.442017-1.016235-.597656-1.508606-.293579-.962097-.617004-1.970276-.933655-2.911438-1.743408-5.108948-3.727478-10.134033-6.996765-14.479431-1.851074-2.43335-4.23761-4.529907-7.027771-5.861633-.511841-.285095-.835388-.742432-1.015686-1.179565-.503906-1.332092-.297974-3.058105,1.062988-3.828186.905762-.459045,1.850098-1.00354,2.672913-1.581848,6.865601-4.724792,9.717285-13.075745,11.539551-20.836609-.000122-.000061.099792-.498047.099792-.498047l.050049-.24884.025024-.12439c.61145-3.513,5.034668-4.521118,6.833069-1.330811.315979.521912.454346,1.10022.604614,1.64856.948364,3.533813,2.272522,7.035339,3.931641,10.254456,2.430969,4.648926,5.693359,8.81427,10.01709,11.84259.226868.149841.68158.449768.914551.591492,2.113708,1.374695,1.885559,4.813232-.285217,5.903625ZM697.950684,382.028564c-13.782288,0-24.955017-11.172729-24.955017-24.955017s11.172729-24.955017,24.955017-24.955017c4.762878,0,9.213257,1.335632,12.999451,3.650879-.287415-.050232-.579224-.088806-.881042-.088806-2.817932,0-5.102295,2.284363-5.102295,5.102295s2.284363,5.102295,5.102295,5.102295,5.102295-2.284363,5.102295-5.102295c0-.827454-.215637-1.597595-.565247-2.288696,5.09314,4.568848,8.299561,11.198669,8.299561,18.579346,0,13.782288-11.172791,24.955017-24.955017,24.955017Z" fill="none" stroke="#fff" stroke-miterlimit="10"/>
      <path d="M237.511169,753.776794c70.70929,51.092834,159.035339,73.232605,245.528931,75.247925.000122-.000244.000061.252441-.000061.503845.002747-.251465.005493-.504333.005493-.504333,110.414734-4.867432,252.682251-47.201965,312.586975-147.118652,10.021423-16.785034,16.590942-34.862427,19.629761-53.383728-7.512512,4.24884-15.099548,8.370178-22.739563,12.398499-1.828064.953613-3.667236,1.885803-5.502747,2.825012.052551,1.045593.096619,2.09021.129333,3.13092.300537,10.658142-1.4375,21.349304-5.137756,31.330078-1.19165,3.301758-2.62616,6.512939-4.250793,9.616943l-.548218-.243896c4.765869-12.90033,6.523804-26.795471,5.146912-40.39209-.044006-.332397-.103821-.659668-.151306-.990967-17.065491,8.584717-34.447083,16.540222-52.097961,23.848755-.003296.087463-.006714.175293-.01001.262756-.51062,13.647644-2.840698,27.275879-6.902832,40.289551l-.583252-.140625c2.193787-12.712769,3.092957-25.599243,2.727295-38.452454-26.969543,10.957031-54.560547,20.387207-82.622986,28.190857-.380432,16.880249-2.850098,33.732117-7.380066,49.957153l-.584229-.136719c3.05072-16.069458,4.341431-32.3927,3.879517-48.692139-20.22644,5.419678-40.691284,9.993591-61.328064,13.7901-.829529,15.809753-7.386658,31.294922-18.531555,42.674438-3.059387,3.194153-6.764221,5.995422-10.173096,8.703308-36.633118,29.614197-107.799377,51.089417-151.03656,26.119019-1.87439-.976807-3.828979-2.416504-5.610779-3.54895-2.225647-1.775696-4.406311-3.618591-6.393799-5.602783-10.682739-10.469116-18.022278-24.182861-21.536743-38.615051-2.573364-9.641785-2.003052-19.629211-5.133911-28.825195l.941162-.337952c2.640625,6.95166,3.23999,14.36615,4.556458,21.584839,2.311401,11.799988,7.040833,23.243835,14.112976,32.920593,4.376221,6.028564,9.696655,11.378967,15.685913,15.761658,1.079407.639465,2.684021,1.647827,3.766296,2.298401,42.042053,23.661987,110.895325,1.328979,145.414429-28.227478,4.448242-3.675171,8.952026-7.485657,12.346191-12.129395,11.410278-14.918762,14.459717-35.619141,8.422668-53.275574-26.888306-24.572571-55.53241-46.813721-87.515442-64.524719,32.358215,9.59259,62.951477,31.548584,84.828125,58.05365-.620728-1.249329-1.292175-2.475769-2.015381-3.675293-2.347717-4.005371-5.139832-7.304626-8.318359-10.832764-12.682495-14.468262-26.878174-27.630859-42.034729-39.516663-15.244141-11.862366-31.626465-22.335938-49.157898-31.009521-9.385925-3.347473-18.968384-6.056824-28.678589-7.98053-14.498535-2.831848-29.371643-3.726013-44.077026-2.486145-4.845825.374573-9.367432,1.216187-13.893127,2.811768-7.786621,2.608887-14.988037,7.021912-20.927185,12.658997-.803894.691956-1.80542,1.663452-2.469788,2.464783-3.160767,3.335632-5.876526,7.259644-8.034546,11.281677-9.595459,18.677246-7.907837,41.621521,1.351746,60.110046,2.134583,4.330688,4.897888,8.465149,7.570007,12.608276.222351.036743.444458.074768.66687.111206-6.194031-17.595642-3.632996-38.477112,7.815308-53.353638,4.828247-6.34668,11.102173-11.536316,18.180237-14.727295-5.68042,5.27594-10.535767,11.013611-14.269348,17.365906-11.641479,19.424805-11.721436,43.138184-4.61377,64.322693-.564209-.772461-1.097046-1.56543-1.615417-2.36731,1.262024,3.112976,2.237793,6.327881,2.843079,9.574585-.000061,0-.946228.323608-.946228.323608-2.155334-4.141174-4.597656-7.96936-7.388977-11.541138-.060547.328247-.096619.524048-.096619.524048-11.739197-2.447327-23.40448-5.221313-34.982178-8.310364-1.848328,2.314453-3.91571,4.459106-6.222107,6.418335-6.139893,5.216064-14.695251,9.544556-25.616394,13.003113,2.068848,13.994324,5.414185,27.815491,9.785645,41.339294l-.564331.203857c-5.250366-13.149719-9.262146-26.784241-12.05896-40.673401-9.132019,2.666931-19.802551,4.768066-32.041199,6.292175-12.332703,1.537415-26.836609,2.74353-43.498352,3.620605,9.702271,9.958862,20.269104,19.045166,31.370911,27.073486ZM375.90802,640.585693c.000061.000061,1.525085-.789856,1.525085-.789856,9.173889-4.761353,15.148926-13.649841,18.884094-23.003052,1.93512-4.705017,3.349792-9.619873,4.408813-14.600342.892395-4.134888,6.068298-5.28418,8.215332-1.425659.430359.748962.611145,1.489746.810608,2.284729.409607,1.629578.870789,3.249695,1.386475,4.846741,4.011475,12.542175,11.03949,24.703735,22.450684,31.775146l1.516968.887085c2.852661,1.792114,2.627502,6.709412-.301941,8.201416-5.856934,2.295593-11.148193,6.031677-15.052795,11.020142-5.71698,7.240295-8.717102,16.239563-10.232727,25.217346-.000061,0-.143555.840515-.143555.840515l-.071655.419861c-.19928,2.096985-2.132935,4.472229-4.658447,3.824524-2.82605-.766418-3.113953-3.437073-3.814819-5.735168-1.564941-5.383484-3.489807-10.687317-5.944397-15.707581-2.946899-6.00531-6.745239-11.76886-11.895874-16.13916-1.7323-1.441101-3.597717-2.733154-5.587524-3.806152-.000061,0-1.552979-.793945-1.552979-.793945-.711121-.389893-1.177124-1.036316-1.443481-1.678101-.74231-1.927063-.464294-4.521545,1.502136-5.638489Z" fill="none" stroke="#fff" stroke-miterlimit="10"/>
      <path d="M702.357178,630.793152c-.060608.118896.032959.093689.09552-.030701.011108-.031799.024292-.062805.035461-.094604-.066284.042725-.118591.087097-.130981.125305Z" fill="none" stroke="#fff" stroke-miterlimit="10"/>
      <path d="M376.574585,646.526428c9.216553,4.0672,16.888245,11.367126,21.979492,20.149658,3.535583,6.051086,5.819946,12.993469,7.060669,19.708984-.114868-.003723-.235291.106689-.111694.077026.329041-.122192.539246-.968079.665955-1.378357,2.864746-9.301453,7.388245-18.013306,13.188354-25.609558,3.924133-5.055176,8.948303-9.335083,14.534363-12.530212.988464-.75946.895203-3.155945-.215454-3.670654-5.098633-1.888489-9.743896-4.982788-13.574585-8.851562-6.787964-6.916077-11.338623-15.78186-13.963623-25.01062-.454346-1.494385-.798645-3.027344-1.158447-4.548096-1.258423,4.6604-2.837524,9.249084-5.005798,13.583374-4.195923,8.505798-10.536255,16.183594-18.717224,21.024597-1.472412.874329-3.107361,1.753418-4.653564,2.5-1.434875.829956-1.437866,3.705261-.028442,4.55542Z" fill="none" stroke="#fff" stroke-miterlimit="10"/>
      <path d="M405.47522,603.172485c.019958-.015625.043762-.031982.044983-.044006.016052-.031738-.008057-.013855-.044983.044006Z" fill="none" stroke="#fff" stroke-miterlimit="10"/>
      <path d="M703.634033,580.682983c-.004333.010498-.0047-.009033-.015259.025818,0,0-.007996.029602-.015747.058167.051392-.085266.04071-.11499.031006-.083984Z" fill="none" stroke="#fff" stroke-miterlimit="10"/>
      <path d="M719.821777,605.363892c.067993.034607-.117981-.0354-.18158-.054504-9.00885-2.958984-14.747925-11.739197-17.256958-20.493347-2.855103,8.045532-8.394592,15.299988-16.164673,19.010803.000122.000122-.97113.470825-.97113.470825-.119812.05658-.248108.191772-.343262.401855-.260803.534607-.20105,1.556702.337219,1.86676.000061,0,.957642.437317.957642.437317,8.019409,3.728577,14.348389,11.364563,16.583801,19.996216.135559.525269.290283,1.132507.427979,1.738647,1.999695-5.032593,4.783875-9.741089,8.035461-14.029785,2.406555-3.116821,5.450806-5.837585,8.8078-7.972046.197266-.346252.144226-1.12262-.130127-1.391907-.090027-.103882-.166321-.069031-.102173.019165Z" fill="none" stroke="#fff" stroke-miterlimit="10"/>
      <path d="M511.900085,377.859253c11.543823,1.209106,23.027954,3.021851,34.313477,5.643005-13.715088-7.643921-27.683533-14.775879-42.171509-20.814941-3.923706-1.634705-7.924805-3.072021-11.936951-4.43927-6.99823-2.352966-16.850098-6.205688-23.841919-8.861023-4.02301-1.524353-8.036682-3.009949-12.004456-4.756287,0-.000061.122681-.587402.122681-.587402,8.709412.169922,17.32605,1.818176,25.687134,4.193787,8.370178,2.355164,16.182495,6.270813,23.952454,10.077209,14.405334,7.033264,28.097351,15.483276,41.218689,24.657837-1.225098-2.392578-2.475586-4.778809-3.667725-7.19104-2.581055-2.16626-5.179016-4.310059-7.818481-6.399963-19.822327-15.98938-41.330933-30.3078-65.125427-39.526917-2.268127-.939209-6.032837-2.191772-8.383484-3.017212-12.730042-3.958374-25.656799-8.126831-38.898804-9.89978-19.688049-2.8526-40.781799-.469849-57.812195,10.171021-10.711487,6.970642-18.112183,17.825684-22.046814,30.209106,1.622864-3.300293,4.171936-6.144897,7.23175-8.167114,1.469727-.882141,3.600891-2.049011,5.089294-2.833252,6.622131-3.441284,14.169922-5.508972,21.546265-6.289307,0-.000061.138367.58374.138367.58374-6.752014,2.511353-13.312866,5.631653-19.173218,9.796143-1.231995.900146-2.839478,2.344055-3.941772,3.422119-2.438232,2.4552-5.144287,4.52301-7.812805,6.739258-1.425598,1.200317-2.80365,2.38855-4.390747,3.506287-.000061-.000061-.250305-.13501-.405884-.218933-2.139893,10.274048-1.975159,21.195251.743042,31.85321,0,0-.173523.067993-.313782.122864.210327.801086.431396,1.594727.668396,2.377991,13.865417-4.380615,27.944397-8.089905,42.105469-11.216675,41.515076-9.487854,84.46283-13.918518,126.928955-9.13446Z" fill="none" stroke="#fff" stroke-miterlimit="10"/>
      <path d="M229.20697,578.962402c-1.774841.058105-3.503845.129028-5.178284.215515-.612915.909241-1.262878,1.789246-1.978027,2.611267,2.465454-.723083,4.863525-1.676575,7.156311-2.826782Z" fill="none" stroke="#fff" stroke-miterlimit="10"/>
      <path d="M784.947754,350.000488c-6.303467,7.332764-14.45874,12.862061-23.457947,16.483215.000061.000061-2.762817.994812-2.762817.994812l-1.387207.493469c-5.639771,1.429993-8.333923,6.746948-10.023193,11.86731-4.359558,11.785278-2.219177,26.132568,5.25238,35.577271.275635-.846741.530273-1.588989.746521-2.197998-.154724.864319-.30304,1.714172-.450989,2.56366,4.886963,5.98175,11.959473,9.907898,20.933899,9.777893,6.769409-.036987,13.5448-2.272583,19.260498-6.003113,3.179626-2.038391,5.411316-4.335999,8.437317-6.860535,1.624329-1.43103,4.305115-2.94574,6.442139-3.465942,2.245544-.625061,4.147156-.876343,5.674072-1.274475,6.698425-1.791199,13.209473-4.534363,18.735718-8.736267,17.449036-12.484131,18.632935-36.909424,12.658447-55.992493-3.783752-11.743469-10.124084-23.758423-21.080688-30.169678-4.719849-2.851196-10.211792-3.76825-15.733093-3.498535-3.524841.189758-7.94873.983582-10.09082,3.764099-.898071,1.471802-1.068787,3.369446-1.168152,5.220032-.230774,3.774414-.62384,7.601929-1.586609,11.265503-1.792908,7.409363-5.510925,14.350708-10.399475,20.191772Z" fill="none" stroke="#fff" stroke-miterlimit="10"/>
      <path d="M208.997803,469.617859c-9.996948,1.332397-15.009644,5.81012-15.009644,13.448853,0,5.761414,2.266785,9.385864,6.808899,10.867065,2.836914.928589,5.811279,1.566467,8.92218,1.914307-3.077881-8.322693-2.742859-17.644165-.721436-26.230225Z" fill="none" stroke="#fff" stroke-miterlimit="10"/>
      <path d="M861.552612,321.705139l-.077148-.134766c-9.017578-15.435547-20.03418-25.337402-33.677734-30.268066-3.71875-1.366699-9.712891-2.580078-16.34375-2.638672-6.711914-22.721191-18.907227-44.628418-35.524414-63.414551-23.319336-26.364258-52.981445-43.659668-83.543945-48.716797-30.677734-5.583984-63.956055-.145996-93.72168,15.322266-29.567383,15.365234-53.246094,39.332031-66.69043,67.5-10.624023,21.627441-15.603516,45.597168-14.801758,69.474121-16.238281-10.710449-34.474609-20.200684-54.645508-26.336426-41.748535-14.600586-75.625-14.812988-103.534668-.662598-30.680664,15.51123-42.94873,54.563477-38.345215,88.04541-.50647.183289-1.042114.379578-1.565063.570251,1.943909,4.487854,3.217957,9.362183,3.834473,14.615479,6.590881-2.445312,13.243408-4.731567,19.94989-6.850403-.237-.783264-.458069-1.576904-.668396-2.377991-.275879.108032-.617432.241699-.617432.241699-11.860901-22.34436-7.504456-53.014404,10.560852-71.132446,9.217346-9.421265,21.989563-14.610413,34.78418-16.812134,21.820007-3.50885,43.92627,1.064453,64.541077,8.056946,7.109131,2.557678,14.564575,4.957947,21.467957,8.094788,18.236084,7.953552,34.974915,19.18103,50.347229,31.636353,6.40271,5.163391,12.549377,10.608826,18.550476,16.198425-.978821-2.15741-1.879883-4.34729-2.639221-6.594177-11.836548-32.937622-8.959045-70.814819,7.728333-101.557129,21.45105-40.977295,65.494507-68.662048,111.381653-71.95813,47.040161-3.844666,89.938232,22.221436,115.327637,60.645935,12.199097,18.20636,20.63269,39.134888,23.266602,60.927795.107849-.264587.224426-.528076.358765-.789368,4.178955-5.662964,16.060181-5.573792,22.417786-4.394287,11.726624,2.685486,20.965637,11.626831,27.469238,21.392517,8.885193,13.454041,12.974915,30.139954,10.412964,46.220825-2.730347,17.504761-13.968323,30.689392-30.376099,37.056946-3.758423,1.52124-7.65332,2.6427-11.583557,3.523865-3.743164.831299-6.129089.498413-8.89447,2.732849-2.844238,2.215027-6.111633,5.131836-9.401001,7.010254-13.709412,8.607666-33.656921,9.344788-45.741028-2.488831-1.694946,11.36499-2.507568,21.014099-2.453674,27.913452.029968,5.169983.559998,8.789978,1.569946,10.440002,1.790039,2.940002,4.220032,6.469971,4.220032,6.469971,1.22998,2.030029,2.400024,3.850037,3.76001,5.240051,2.329956,3.569946,4.570007,7.209961,6.669983,10.909973l.348694-.42157c-.016113-.018555-.03186-.037415-.047974-.055969l.741821-.670532c42.111084,44.776123,60.072083,93.858521,54.644104,141.556702.082825-.043762.166321-.08606.249146-.129883-.083252.048218-.167419.094971-.250732.143127-4.693909,41.21405-26.84668,81.394409-66.010986,116.867371-59.359192,53.575195-138.259277,81.900391-217.322266,87.749207-18.093872,1.220093-36.575623,1.449219-54.640381.167236-87.480896,1.079529-177.476196-19.574951-250.19104-69.747498-13.913513-9.558594-27.209106-20.624084-39.107361-32.996704-6.365417.25824-13.009521.473938-19.93457.64679,27.660461,32.805359,66.560181,60.794739,114.199829,81.912598,58.478516,25.921875,125.872559,39.645508,194.907715,39.689453,1.67627.017578,3.342285.026367,5.019043.026367,72.154297-.001953,144.785156-16.601562,205.051758-46.9375,62.251953-31.336914,108.87207-75.97168,131.272461-125.683594,30.696289-68.125,15.275391-141.404297-43.421875-206.337402l-1.998047-2.210449c-1.100586-1.787598-2.24707-3.59375-3.431641-5.40918l-.433594-.664551-.485352-.628418c-1.299805-1.683105-2.415039-3.513672-3.338867-5.494629-.929688-1.978027-1.587891-3.964355-2.03418-6.160156.004883-.351562.012695-.711426.022461-1.078613,8.707031.828125,17.81543-.477051,26.561523-3.935547,6.374023-2.522461,12.303711-6.098145,17.587891-10.595703.4375-.371094.864258-.737305,1.280273-1.094727.3125-.267578.673828-.578125,1.013672-.865234.044922-.008301.088867-.016113.131836-.023926,1.40625-.253418,3.294922-.594238,5.393555-1.188965,5.375-1.369629,15.298828-4.523438,24.378906-10.776367,33.020508-21.818848,34.125-67.301758,16.071289-98.765137Z" fill="#fff" stroke="#fff" stroke-miterlimit="10"/>
      <path d="M752.56897,415.416565c.09729.122986.196411.244324.295532.365662.147949-.849487.296265-1.699341.450989-2.56366-.216248.609009-.470886,1.351257-.746521,2.197998Z" stroke="#fff" stroke-miterlimit="10"/>
      <path d="M642.592651,686.921021c-.451538-10.683838-1.213867-21.466003-3.906372-31.860718-2.663574-10.373962-6.371643-20.523682-11.677307-29.848145l-.560913.213013c1.061707,5.243286,2.237793,10.381287,3.331482,15.518921,1.943359,8.904846,4.181396,21.716003,5.831116,30.781555.924622,5.133301,1.726379,10.305237,2.192627,15.514709.193115,2.124878.348022,4.25177.480957,6.379578,1.488464-.346252,2.97583-.697449,4.462158-1.05304-.028198-1.882935-.073059-3.76532-.153748-5.645874Z" fill="#fff" stroke="#fff" stroke-miterlimit="10"/>
      <path d="M638.633606,701.323486c.461914,16.299438-.828796,32.622681-3.879517,48.692139l.584229.136719c4.529968-16.225037,6.999634-33.076904,7.380066-49.957153-.978821.272217-1.954163.556519-2.934143.824768-.382935.103271-.767517.200867-1.150635.303528Z" fill="#fff" stroke="#fff" stroke-miterlimit="10"/>
      <path d="M729.478271,649.699829c-1.207336-6.804749-3.08728-13.50238-6.281006-19.68158l-.58313.140991c-.049072,3.485535.129395,6.869385.305542,10.234009.359924,6.696411.726379,13.303772,1.515198,19.946655.295593,2.463135.5578,4.937073.726746,7.418274,1.702576-.620239,3.40155-1.250122,5.099731-1.882446.174988-5.407104.189392-10.839478-.783081-16.175903Z" fill="#fff" stroke="#fff" stroke-miterlimit="10"/>
      <path d="M722.614075,710.456787l.583252.140625c4.062134-13.013672,6.392212-26.641907,6.902832-40.289551.003296-.087463.006714-.175293.01001-.262756-1.587891.657471-3.176575,1.312378-4.768799,1.959229.365662,12.85321-.533508,25.739685-2.727295,38.452454Z" fill="#fff" stroke="#fff" stroke-miterlimit="10"/>
      <path d="M782.359436,647.187317c1.376892,13.596619-.381042,27.49176-5.146912,40.39209l.548218.243896c1.624634-3.104004,3.059143-6.315186,4.250793-9.616943,3.700256-9.980774,5.438293-20.671936,5.137756-31.330078-.032715-1.04071-.076782-2.085327-.129333-3.13092-1.602478.820007-3.203735,1.642029-4.811829,2.450989.047485.331299.1073.658569.151306.990967Z" fill="#fff" stroke="#fff" stroke-miterlimit="10"/>
      <path d="M783.755798,625.679688c-2.530579-6.705627-6.142517-13.082703-11.21167-18.192505l-.512085.312744s3.208191,9.929993,3.208496,9.929932c2.549927,8.876648,5.228638,17.61145,6.702942,26.732666,1.664124-.761047,3.326477-1.525818,4.985046-2.298584-.356445-5.608765-1.142578-11.221191-3.172729-16.484253Z" fill="#fff" stroke="#fff" stroke-miterlimit="10"/>
      <path d="M293.738647,589.369385c-1.713074,3.427185-3.258301,6.935364-4.677856,10.496399.928894.211975,1.841125.442322,2.736389.691406.80304-3.664612,1.629944-7.326599,2.505981-10.984436l-.564514-.203369Z" fill="#fff" stroke="#fff" stroke-miterlimit="10"/>
      <path d="M577.305542,715.113586c20.63678-3.796509,41.101624-8.370422,61.328064-13.7901.383118-.102661.7677-.200256,1.150635-.303528.97998-.26825,1.955322-.552551,2.934143-.824768,28.062439-7.80365,55.653442-17.233826,82.622986-28.190857,1.592224-.646851,3.180908-1.301758,4.768799-1.959229,17.650879-7.308533,35.032471-15.264038,52.097961-23.848755,1.608093-.80896,3.209351-1.630981,4.811829-2.450989,1.83551-.939209,3.674683-1.871399,5.502747-2.825012,7.640015-4.02832,15.227051-8.149658,22.739563-12.398499.017883-.108826.038635-.217285.056274-.326172-7.726196,3.991821-15.518494,7.849121-23.354187,11.606201-1.674927.795044-3.355164,1.578979-5.035828,2.362061-1.658569.772766-3.320923,1.537537-4.985046,2.298584-16.959717,7.756775-34.201904,14.90448-51.682129,21.413208-1.698181.632324-3.397156,1.262207-5.099731,1.882446-26.975647,9.826721-54.50293,18.131531-82.415222,24.808716-1.486328.355591-2.973694.706787-4.462158,1.05304-20.235535,4.707947-40.668396,8.555298-61.234619,11.508606.34314,3.319458.43042,6.659058.25592,9.985046Z" fill="#fff" stroke="#fff" stroke-miterlimit="10"/>
      <path d="M821.261292,625.09729c-.082825.043823-.166321.086121-.249146.129883-.000488.004395-.001099.00885-.001587.013245.083313-.048157.16748-.09491.250732-.143127Z" stroke="#fff" stroke-miterlimit="10"/>
      <path d="M351.429871,694.688232c-.222412-.036438-.444519-.074463-.66687-.111206.518188.803467,1.032715,1.607422,1.538757,2.413025-.306519-.760864-.599304-1.527405-.871887-2.301819Z" stroke="#fff" stroke-miterlimit="10"/>
      <path d="M351.434753,704.285645c-.574463-.735046-1.142456-1.47467-1.749329-2.18689-2.700989-3.00824-5.518738-5.99176-8.161316-9.11615-6.786621-1.223206-13.55127-2.565002-20.295105-4.004944-1.394897,2.685059-3.01532,5.195374-4.873047,7.521667,11.577698,3.08905,23.242981,5.863037,34.982178,8.310364,0,0,.036072-.195801.096619-.524048Z" fill="#fff" stroke="#fff" stroke-miterlimit="10"/>
      <path d="M506.020996,358.314331c-7.769958-3.806396-15.582275-7.722046-23.952454-10.077209-8.361084-2.37561-16.977722-4.023865-25.687134-4.193787,0,0-.122681.587341-.122681.587402,3.967773,1.746338,7.981445,3.231934,12.004456,4.756287,6.991821,2.655334,16.843689,6.508057,23.841919,8.861023,4.012146,1.367249,8.013245,2.804565,11.936951,4.43927,14.487976,6.039062,28.456421,13.171021,42.171509,20.814941.490173.113831.981506.223267,1.470886.340271-.147583-.290283-.296265-.580322-.444763-.870361-13.121338-9.174561-26.813354-17.624573-41.218689-24.657837Z" fill="#fff" stroke="#fff" stroke-miterlimit="10"/>
      <path d="M341.768005,363.856323c.155579.083923.405823.218872.405884.218933,1.587097-1.117737,2.965149-2.305969,4.390747-3.506287,2.668518-2.216248,5.374573-4.284058,7.812805-6.739258,1.102295-1.078064,2.709778-2.521973,3.941772-3.422119,5.860352-4.16449,12.421204-7.28479,19.173218-9.796143,0,0-.138367-.583801-.138367-.58374-7.376343.780334-14.924133,2.848022-21.546265,6.289307-1.488403.784241-3.619568,1.951111-5.089294,2.833252-3.059814,2.022217-5.608887,4.866821-7.23175,8.167114-.370605,1.166382-.721802,2.341248-1.030518,3.532837-.254211.994446-.478333,1.998291-.688232,3.006104Z" fill="#fff" stroke="#fff" stroke-miterlimit="10"/>
      <path d="M214.924622,470.577576c.160034-.459839.331482-.91925.496643-1.379333-2.331482.019775-4.472717.159607-6.423462.419617-2.021423,8.58606-2.356445,17.907532.721436,26.230225.11853.013245.239807.020752.358704.033142.135254-.024475.26355-.047668.26355-.047668.157471-8.751221,1.793457-17.095459,4.58313-25.255981Z" fill="#fff" stroke="#fff" stroke-miterlimit="10"/>
      <path d="M212.106262,583.442017c3.351318-.144653,6.701904-.701843,9.944397-1.652832.715149-.822021,1.365112-1.702026,1.978027-2.611267-2.569702.132751-5.016296.300415-7.34906.50061-1.314575,1.730103-2.851562,2.939148-4.573364,3.763489Z" fill="#fff" stroke="#fff" stroke-miterlimit="10"/>
      <path d="M459.921509,603.108154c17.531433,8.673584,33.913757,19.147156,49.157898,31.009521,15.156555,11.885803,29.352234,25.048401,42.034729,39.516663,3.178528,3.528137,5.970642,6.827393,8.318359,10.832764.723206,1.199524,1.394653,2.425964,2.015381,3.675293,3.517639,4.261902,6.818176,8.637146,9.855713,13.102051-2.37439-2.230286-4.767029-4.436462-7.168396-6.630981,6.037048,17.656433,2.98761,38.356812-8.422668,53.275574-3.394165,4.643738-7.897949,8.454224-12.346191,12.129395-34.519104,29.556458-103.372375,51.889465-145.414429,28.227478-1.082275-.650574-2.68689-1.658936-3.766296-2.298401-5.989258-4.38269-11.309692-9.733093-15.685913-15.761658-7.072144-9.676758-11.801575-21.120605-14.112976-32.920593-1.316467-7.218689-1.915833-14.633179-4.556458-21.584839l-.941162.337952c3.130859,9.195984,2.560547,19.183411,5.133911,28.825195,3.514465,14.43219,10.854004,28.145935,21.536743,38.615051,1.987488,1.984192,4.168152,3.827087,6.393799,5.602783,1.781799,1.132446,3.736389,2.572144,5.610779,3.54895,43.237183,24.970398,114.403442,3.495178,151.03656-26.119019,3.408875-2.707886,7.113708-5.509155,10.173096-8.703308,11.144897-11.379517,17.702026-26.864685,18.531555-42.674438.1745-3.325989.087219-6.665588-.25592-9.985046-.400085-3.870239-1.150391-7.71283-2.2854-11.470581-2.925903-10.117432-8.917053-19.341003-16.253113-26.753357-27.15155-28.607422-60.628479-52.365662-98.215698-64.723938v.000061c0-.000061-.093506.231812-.186951.463684l-.186951.463745Z" fill="#fff" stroke="#fff" stroke-miterlimit="10"/>
      <path d="M341.524109,692.982605c2.642578,3.12439,5.460327,6.10791,8.161316,9.11615.606873.712219,1.174866,1.451843,1.749329,2.18689,2.791321,3.571777,5.233643,7.399963,7.388977,11.541138,0,0,.946167-.323608.946228-.323608-.605286-3.246704-1.581055-6.461609-2.843079-9.574585-1.825378-2.823669-3.368713-5.819702-4.625122-8.938538-.506042-.805603-1.020569-1.609558-1.538757-2.413025-2.672119-4.143127-5.435425-8.277588-7.570007-12.608276-9.259583-18.488525-10.947205-41.4328-1.351746-60.110046,2.15802-4.022034,4.873779-7.946045,8.034546-11.281677.664368-.801331,1.665894-1.772827,2.469788-2.464783,5.939148-5.637085,13.140564-10.05011,20.927185-12.658997,4.525696-1.595581,9.047302-2.437195,13.893127-2.811768,14.705383-1.239868,29.578491-.345703,44.077026,2.486145,9.710205,1.923706,19.292664,4.633057,28.678589,7.98053,0,0,.093445-.231873.186951-.463745.093445-.231873.186951-.463745.186951-.463684-9.165833-4.090271-18.638733-7.501709-28.364502-10.05719-14.689209-3.854187-29.903931-5.790527-45.114197-5.296448-5.132202.101685-10.514282.802673-15.523254,2.277466-15.318176,4.36853-28.812073,14.824402-37.146423,28.366333-4.365723,7.071533-7.122803,14.689819-8.359436,22.473877,1.166138,5.992981,1.761658,12.615234,1.761658,19.893982,0,2.220093-.087463,4.372498-.248474,6.468018,1.53656,5.613892,3.838013,11.089294,6.885193,16.275818,2.031189,3.748657,4.589844,7.150635,7.338135,10.400024Z" fill="#fff" stroke="#fff" stroke-miterlimit="10"/>
      <path d="M549.697205,380.972473c-2.036499-1.738098-4.075867-3.471313-6.125244-5.191345,1.192139,2.412231,2.442627,4.798462,3.667725,7.19104.148499.290039.29718.580078.444763.870361,2.024414.483826,4.044128.986267,6.054199,1.525208l-.160156.987061c-1.591125-.093872-3.176575-.170532-4.765198-.257202,1.023071,2.075073,2.000305,4.165161,2.872192,6.292847,4.527649,11.073425,5.334839,23.543335,3.200867,35.335815-1.787842,10.70459-7.014832,20.650452-12.54834,30.396545,0,0,.830505.557007.830444.556946,7.010193-8.936096,13.470947-18.676453,16.486633-29.841187,3.504822-12.544922,3.649109-26.519897-.668335-39.189087-2.772705-8.003479-6.792847-15.459106-9.738708-23.302673-4.010132-11.393555-6.176331-23.470947-6.745728-35.528137-4.265503-68.70459,48.400085-126.533752,116.254517-133.222961,68.261169-7.577087,128.516235,52.855469,137.376099,117.971008,0,0,.121643-.014038.169678-.019592.137512-.663391.330261-1.319519.593994-1.966797-2.633911-21.792908-11.067505-42.721436-23.266602-60.927795-25.389404-38.4245-68.287476-64.490601-115.327637-60.645935-45.887146,3.296082-89.930603,30.980835-111.381653,71.95813-16.687378,30.74231-19.56488,68.619507-7.728333,101.557129.759338,2.246887,1.6604,4.436768,2.639221,6.594177,2.876282,2.679016,5.729919,5.380371,8.541992,8.119873l-.676392.736572Z" fill="#fff" stroke="#fff" stroke-miterlimit="10"/>
      <path d="M226.785645,492.961731c.119324.798157.266846,1.590149.426819,2.379211.365845-.043579.723572-.083679,1.097595-.130798-.198242-.800232-.383118-1.604614-.538818-2.417542,0,0-.985657.169189-.985596.169128Z" fill="#fff" stroke="#fff" stroke-miterlimit="10"/>
      <path d="M238.117065,578.647827c-2.488586.133118-4.97699.22406-7.465088.268616-.487549.013672-.964783.030273-1.445007.045959-2.292786,1.150208-4.690857,2.103699-7.156311,2.826782-3.242493.950989-6.593079,1.508179-9.944397,1.652832-3.147095.135742-6.291016-.109009-9.349609-.748779-.452271.2146-.889771.438171-1.30481.675171-1.657288.947388-2.848572,2.239746-3.60675,3.853333,13.748657,3.959045,29.189697.354797,40.271973-8.573914Z" fill="#fff" stroke="#fff" stroke-miterlimit="10"/>
      <path d="M226.746521,492.742676l.980042-.19873c-.22644-2.281738-.377014-4.552856-.246765-6.823059.179626-5.25769,1.2052-10.44928,2.830933-15.446045-1.399902-.179321-2.751099-.338623-4.043518-.473511-1.495056,7.598145-1.557129,15.456482.479309,22.941345Z" fill="#fff" stroke="#fff" stroke-miterlimit="10"/>
      <path d="M341.768005,363.856323c.2099-1.007812.434021-2.011658.688232-3.006104.308716-1.191589.659912-2.366455,1.030518-3.532837,3.934631-12.383423,11.335327-23.238464,22.046814-30.209106,17.030396-10.640869,38.124146-13.023621,57.812195-10.171021,13.242004,1.772949,26.168762,5.941406,38.898804,9.89978,2.350647.825439,6.115356,2.078003,8.383484,3.017212,23.794495,9.219116,45.303101,23.537537,65.125427,39.526917,2.639465,2.089905,5.237427,4.233704,7.818481,6.399963,2.049377,1.720032,4.088745,3.453247,6.125244,5.191345l.676392-.736572c-2.812073-2.739502-5.66571-5.440857-8.541992-8.119873-6.001099-5.5896-12.147766-11.035034-18.550476-16.198425-15.372314-12.455322-32.111145-23.6828-50.347229-31.636353-6.903381-3.136841-14.358826-5.537109-21.467957-8.094788-20.614807-6.992493-42.721069-11.565796-64.541077-8.056946-12.794617,2.201721-25.566833,7.390869-34.78418,16.812134-18.065308,18.118042-22.421753,48.788086-10.560852,71.132446,0,0,.341553-.133667.617432-.241699.140259-.054871.313782-.122864.313782-.122864-2.718201-10.657959-2.882935-21.579163-.743042-31.85321Z" fill="#fff" stroke="#fff" stroke-miterlimit="10"/>
      <path d="M815.318542,628.195679c-.017639.108887-.038391.217346-.056274.326172-3.038818,18.521301-9.608337,36.598694-19.629761,53.383728-59.904724,99.916687-202.172241,142.251221-312.586975,147.118652,0,0-.002747.252869-.005493.504333v.001343c-.000061.248047-.000183.494324-.000183.494324h-.00293c18.064758,1.281982,36.546509,1.052856,54.640381-.167236,79.062988-5.848816,157.963074-34.174011,217.322266-87.749207,39.164307-35.472961,61.317078-75.65332,66.010986-116.867371.000488-.004395.001099-.00885.001587-.013245,5.427979-47.698181-12.53302-96.780579-54.644104-141.556702l-.741821.670532c.016113.018555.03186.037415.047974.055969,15.763184,18.13208,29.519714,38.244507,38.914978,60.380798,11.764221,26.897888,15.221313,55.651978,10.72937,83.417908Z" fill="#fff" stroke="#fff" stroke-miterlimit="10"/>
      <path d="M511.50769,384.88147c12.400879.071045,24.818726.534912,37.305603,1.216125,1.588623.08667,3.174072.16333,4.765198.257202l.160156-.987061c-2.010071-.53894-4.029785-1.041382-6.054199-1.525208-.48938-.117004-.980713-.22644-1.470886-.340271-11.285522-2.621155-22.769653-4.433899-34.313477-5.643005-42.466125-4.784058-85.413879-.353394-126.928955,9.13446-14.161072,3.12677-28.240051,6.83606-42.105469,11.216675-6.706482,2.118835-13.359009,4.40509-19.94989,6.850403.225464,1.921387.353699,3.898926.401611,5.922668,60.40033-20.179321,124.723145-25.870972,188.190308-26.10199Z" fill="#fff" stroke="#fff" stroke-miterlimit="10"/>
      <path d="M483.040039,829.529907v-.001343c.000122-.251404.000183-.504089.000061-.503845-86.493591-2.01532-174.819641-24.15509-245.528931-75.247925-11.101807-8.02832-21.66864-17.114624-31.370911-27.073486-4.010254.21106-8.140747.40387-12.401733.576721,11.898254,12.37262,25.193848,23.43811,39.107361,32.996704,72.714844,50.172546,162.710144,70.827026,250.19104,69.747498h.00293s.000122-.246277.000183-.494324Z" fill="#fff" stroke="#fff" stroke-miterlimit="10"/>
      <path d="M795.602661,324.101074c-.40332,2.760864-1.039551,5.52002-1.886963,8.177307-4.969238,15.266724-18.564575,25.981445-33.494507,30.677307-.80542.23877-3.1604.904114-3.917969,1.13031-2.608887.564392-5.154053,1.797729-7.156006,3.590393-3.214722,2.755371-4.924316,6.644226-6.516479,10.428589-5.877808,15.004211-3.285706,33.634033,8.391724,45.21637.175171.180481.358093.348755.536743.523743,12.084106,11.833618,32.031616,11.096497,45.741028,2.488831,3.289368-1.878418,6.556763-4.795227,9.401001-7.010254,2.765381-2.234436,5.151306-1.90155,8.89447-2.732849,3.930237-.881165,7.825134-2.002625,11.583557-3.523865,16.407776-6.367554,27.645752-19.552185,30.376099-37.056946,2.561951-16.080872-1.527771-32.766785-10.412964-46.220825-6.503601-9.765686-15.742615-18.707031-27.469238-21.392517-6.357605-1.179504-18.238831-1.268677-22.417786,4.394287-.134338.261292-.250916.52478-.358765.789368-.263733.647278-.456482,1.303406-.593994,1.966797-.579285,2.794006-.242004,5.708374-.699951,8.553955ZM796.933838,318.543213c.099365-1.850586.270081-3.74823,1.168152-5.220032,2.14209-2.780518,6.565979-3.574341,10.09082-3.764099,5.521301-.269714,11.013245.647339,15.733093,3.498535,10.956604,6.411255,17.296936,18.426208,21.080688,30.169678,5.974487,19.083069,4.790588,43.508362-12.658447,55.992493-5.526245,4.201904-12.037292,6.945068-18.735718,8.736267-1.526917.398132-3.428528.649414-5.674072,1.274475-2.137024.520203-4.81781,2.034912-6.442139,3.465942-3.026001,2.524536-5.25769,4.822144-8.437317,6.860535-5.715698,3.73053-12.491089,5.966125-19.260498,6.003113-8.974426.130005-16.046936-3.796143-20.933899-9.777893-.099121-.121338-.198242-.242676-.295532-.365662-7.471558-9.444702-9.611938-23.791992-5.25238-35.577271,1.68927-5.120361,4.383423-10.437317,10.023193-11.86731l1.387207-.493469s2.762878-.994751,2.762817-.994812c8.999207-3.621155,17.15448-9.150452,23.457947-16.483215,4.88855-5.841064,8.606567-12.78241,10.399475-20.191772.962769-3.663574,1.355835-7.491089,1.586609-11.265503Z" fill="#fff" stroke="#fff" stroke-miterlimit="10"/>
      <path d="M471.614502,519.553711c-13.830383,3.526855-27.887878,6.480713-42.202515,6.800781-28.732788.778198-57.733582-8.33374-80.617371-25.879028l-.377747.466187c11.023987,9.556152,23.870178,17.083313,37.657837,22.230164,34.669128,12.56134,74.692139,10.432007,107.744446-6.034424,6.60437-3.252319,12.995972-6.954773,18.848877-11.39386l-.305054-.516663c-13.356018,5.8479-26.888611,10.757751-40.748474,14.326843Z" fill="#fff" stroke="#fff" stroke-miterlimit="10"/>
      <path d="M714.60614,338.494202c.349609.691101.565247,1.461243.565247,2.288696,0,2.817932-2.284363,5.102295-5.102295,5.102295s-5.102295-2.284363-5.102295-5.102295,2.284363-5.102295,5.102295-5.102295c.301819,0,.593628.038574.881042.088806-3.786194-2.315247-8.236572-3.650879-12.999451-3.650879-13.782288,0-24.955017,11.172729-24.955017,24.955017s11.172729,24.955017,24.955017,24.955017,24.955017-11.172729,24.955017-24.955017c0-7.380676-3.206421-14.010498-8.299561-18.579346Z" fill="#fff" stroke="#fff" stroke-miterlimit="10"/>
      <path d="M561.447876,688.142395c-21.876648-26.505066-52.46991-48.46106-84.828125-58.05365,31.983032,17.710999,60.627136,39.952148,87.515442,64.524719,2.401367,2.194519,4.794006,4.400696,7.168396,6.630981-3.037537-4.464905-6.338074-8.840149-9.855713-13.102051Z" fill="#fff" stroke="#fff" stroke-miterlimit="10"/>
      <path d="M356.92688,705.928589c.518372.80188,1.051208,1.594849,1.615417,2.36731-7.107666-21.184509-7.02771-44.897888,4.61377-64.322693,3.733582-6.352295,8.588928-12.089966,14.269348-17.365906-7.078064,3.190979-13.35199,8.380615-18.180237,14.727295-11.448303,14.876526-14.009338,35.757996-7.815308,53.353638.272583.774414.565369,1.540955.871887,2.301819,1.256409,3.118835,2.799744,6.114868,4.625122,8.938538Z" fill="#fff" stroke="#fff" stroke-miterlimit="10"/>
      <path d="M721.251709,602.65094c-.232971-.141724-.687683-.44165-.914551-.591492-4.32373-3.02832-7.586121-7.193665-10.01709-11.84259-1.659119-3.219116-2.983276-6.720642-3.931641-10.254456-.150269-.54834-.288635-1.126648-.604614-1.64856-1.798401-3.190308-6.221619-2.18219-6.833069,1.330811l-.025024.12439-.050049.24884s-.099915.497986-.099792.498047c-1.822266,7.760864-4.67395,16.111816-11.539551,20.836609-.822815.578308-1.767151,1.122803-2.672913,1.581848-1.360962.770081-1.566895,2.496094-1.062988,3.828186.180298.437134.503845.89447,1.015686,1.179565,2.790161,1.331726,5.176697,3.428284,7.027771,5.861633,3.269287,4.345398,5.253357,9.370483,6.996765,14.479431.31665.941162.640076,1.949341.933655,2.911438.15564.492371.295044,1.052551.597656,1.508606,1.5448,2.625977,5.169922,1.838013,5.662781-1.042419.682434-5.872803,2.111511-11.925537,5.905518-16.644287,2.391602-3.042175,5.689148-5.246338,9.326233-6.461975,2.170776-1.090393,2.398926-4.528931.285217-5.903625ZM703.618774,580.708801c.010559-.034851.010925-.01532.015259-.025818.009705-.031006.020386-.001282-.031006.083984.007751-.028564.015747-.058167.015747-.058167ZM702.452698,630.762451c-.062561.12439-.156128.149597-.09552.030701.01239-.038208.064697-.082581.130981-.125305-.011169.031799-.024353.062805-.035461.094604ZM720.054077,606.736633c-3.356995,2.13446-6.401245,4.855225-8.8078,7.972046-3.251587,4.288696-6.035767,8.997192-8.035461,14.029785-.137695-.60614-.292419-1.213379-.427979-1.738647-2.235413-8.631653-8.564392-16.267639-16.583801-19.996216,0,0-.957581-.437317-.957642-.437317-.538269-.310059-.598022-1.332153-.337219-1.86676.095154-.210083.22345-.345276.343262-.401855,0,0,.971252-.470703.97113-.470825,7.770081-3.710815,13.30957-10.965271,16.164673-19.010803,2.509033,8.75415,8.248108,17.534363,17.256958,20.493347.063599.019104.249573.089111.18158.054504-.064148-.088196.012146-.123047.102173-.019165.274353.269287.327393,1.045654.130127,1.391907Z" fill="#fff" stroke="#fff" stroke-miterlimit="10"/>
      <path d="M375.849365,647.902283s1.552917.793945,1.552979.793945c1.989807,1.072998,3.855225,2.365051,5.587524,3.806152,5.150635,4.3703,8.948975,10.13385,11.895874,16.13916,2.45459,5.020264,4.379456,10.324097,5.944397,15.707581.700867,2.298096.98877,4.96875,3.814819,5.735168,2.525513.647705,4.459167-1.727539,4.658447-3.824524l.071655-.419861s.143494-.840515.143555-.840515c1.515625-8.977783,4.515747-17.977051,10.232727-25.217346,3.904602-4.988464,9.195862-8.724548,15.052795-11.020142,2.929443-1.492004,3.154602-6.409302.301941-8.201416l-1.516968-.887085c-11.411194-7.071411-18.439209-19.232971-22.450684-31.775146-.515686-1.597046-.976868-3.217163-1.386475-4.846741-.199463-.794983-.380249-1.535767-.810608-2.284729-2.147034-3.858521-7.322937-2.709229-8.215332,1.425659-1.059021,4.980469-2.473694,9.895325-4.408813,14.600342-3.735168,9.35321-9.710205,18.241699-18.884094,23.003052,0,0-1.525024.789917-1.525085.789856-1.966431,1.116943-2.244446,3.711426-1.502136,5.638489.266357.641785.732361,1.288208,1.443481,1.678101ZM405.520203,603.128479c-.001221.012024-.025024.028381-.044983.044006.036926-.057861.061035-.075745.044983-.044006ZM376.603027,641.971008c1.546204-.746582,3.181152-1.625671,4.653564-2.5,8.180969-4.841003,14.521301-12.518799,18.717224-21.024597,2.168274-4.33429,3.747375-8.922974,5.005798-13.583374.359802,1.520752.704102,3.053711,1.158447,4.548096,2.625,9.22876,7.175659,18.094543,13.963623,25.01062,3.830688,3.868774,8.475952,6.963074,13.574585,8.851562,1.110657.514709,1.203918,2.911194.215454,3.670654-5.58606,3.195129-10.610229,7.475037-14.534363,12.530212-5.80011,7.596252-10.323608,16.308105-13.188354,25.609558-.126709.410278-.336914,1.256165-.665955,1.378357-.123596.029663-.003174-.08075.111694-.077026-1.240723-6.715515-3.525085-13.657898-7.060669-19.708984-5.091248-8.782532-12.762939-16.082458-21.979492-20.149658-1.409424-.850159-1.406433-3.725464.028442-4.55542Z" fill="#fff" stroke="#fff" stroke-miterlimit="10"/>
    </g>
    <path d="M343.168762,586.615967c-4.196472-4.627808-9.67688-9.569885-16.693909-14.021667,4.847595-10.780579,7.291321-23.373108,7.291321-37.6745,0-13.423706-1.824646-25.012146-5.578186-35.427856-.267395-.742004-.543701-1.475464-.82959-2.201721,8.310486-6.235718,15.564819-14.310974,21.489624-24.005981,9.764587-15.978455,14.511047-35.821838,14.511047-60.664612,0-15.984131-3.457092-30.706604-10.275085-43.758789-6.940002-13.285522-17.170166-24.509338-30.406616-33.35968-20.62323-13.785522-48.092285-22.815369-83.981079-27.607849-31.033508-4.143555-69.160156-6.244324-113.322021-6.244324-32.456421,0-58.746582,7.53186-78.140259,22.386475-20.403564,15.628479-33.877258,40.832153-40.047119,74.911072-4.835693,26.684326-7.18689,62.426208-7.18689,109.261108,0,58.408752,3.817993,116.749084,11.347961,173.400024l.014465.108887.015076.108643c4.072327,29.402344,18.934937,52.894531,42.985413,67.943359,19.680908,12.398376,44.540161,18.683838,73.892151,18.683838,54.365417,0,95.688904-1.856934,126.331726-5.67688,36.953979-4.602173,63.596619-14.21051,81.444885-29.373413,14.377563-12.213379,31.517578-34.891052,31.517578-73.563354,0-30.746643-8.20282-55.382324-24.380493-73.222778ZM323.081909,718.160706c-14.78418,12.560547-37.999512,20.662109-70.97168,24.768555-29.393555,3.665039-71.06543,5.523438-123.85498,5.523438-25.564453,0-46.868652-5.269531-63.320312-15.661133-18.811523-11.753906-30.509766-30.34375-33.74707-53.709961l-.014648-.109375c-7.414062-55.78125-11.17334-113.235352-11.17334-170.764648,0-45.625,2.246582-80.199707,6.867676-105.701172,5.254883-29.024902,16.19873-50.085449,32.527344-62.593262,11.330933-8.678406,25.948059-14.275635,43.591187-16.764404.216858-.463135.423523-.927795.60675-1.400391.134155-1.11908.150391-2.244873.151123-3.386963.001709-2.892517,2.106323-5.656372,4.215454-7.436707,2.198181-1.855591,5.206421-2.412109,7.99353-2.207947,2.77301.203125,5.770203,2.051758,7.436707,4.215515,1.891052,2.455261,2.209656,5.014648,2.207886,7.99353-.000122.242249-.010742.482605-.016479.723816,43.189453.006592,80.356445,2.047363,110.467651,6.067749,32.790039,4.378906,57.489746,12.362793,75.509766,24.408203,20.805176,13.910645,31.800781,34.828613,31.800781,60.494141,0,21.056152-3.786621,37.488281-11.577148,50.23584-8.191895,13.405762-19.002441,22.364746-32.139648,26.638672,9.379883,10.582031,14.123535,25.812988,14.123535,45.425293,0,19.494141-5.484375,34.5-16.300293,44.601562-.511719.477539-1.02832.945312-1.551758,1.404297,13.118164,3.401367,23.978027,9.794922,32.438965,19.125977,12.737793,14.046875,19.196289,34.162109,19.196289,59.787109,0,24.908203-8.231934,44.530273-24.467285,58.322266Z" fill="#fff"/>
    <path d="M328.352905,600.051331c-8.460938-9.331055-19.320801-15.724609-32.438965-19.125977.523438-.458984,1.040039-.926758,1.551758-1.404297,10.815918-10.101562,16.300293-25.107422,16.300293-44.601562,0-19.612305-4.743652-34.843262-14.123535-45.425293,13.137207-4.273926,23.947754-13.23291,32.139648-26.638672,7.790527-12.747559,11.577148-29.179688,11.577148-50.23584,0-25.665527-10.995605-46.583496-31.800781-60.494141-18.02002-12.04541-42.719727-20.029297-75.509766-24.408203-28.646423-3.824829-63.688416-5.854675-104.216919-6.049133,1.42395,1.27124,2.725525,2.625488,3.869263,3.980408,3.795532,4.496338,5.487061,10.300842,5.773315,16.098938,35.64386.440186,66.289062,2.370667,91.927307,5.793762,29.416931,3.928284,51.763123,10.998169,67.04248,21.21167,15.275208,10.213562,22.914917,24.839233,22.914917,43.866638,0,17.11261-2.880737,30.378601-8.642151,39.806458-5.761536,9.427856-13.008484,15.495239-21.73645,18.200012-8.7323,2.708923-17.460327,4.060303-26.188477,4.060303-6.637207,0-14.403687-.785706-23.307678-2.357056-11.698914-2.095093-20.864929-3.142639-27.497864-3.142639-14.665527,0-21.998291,4.627991-21.998291,13.880005,0,5.761414,2.266785,9.385864,6.808899,10.867065,4.538025,1.485413,9.427856,2.227112,14.665527,2.227112,5.585571,0,13.00415-.785706,22.260193-2.356934,7.504578-1.21936,13.266113-1.833252,17.284424-1.833252,10.647095,0,19.289429,2.447083,25.926514,7.332764,8.552124,6.461243,12.832458,18.331848,12.832458,35.616333,0,13.794006-3.318665,23.789551-9.951721,29.984619-6.637207,6.199402-14.755554,10.041687-24.355225,11.523071-9.603821,1.485413-19.207703,2.317078-28.807251,2.488953-6.285217.175964-11.960754.523682-17.022461,1.047485-5.065979.523743-9.125183,1.661377-12.177673,3.40448-3.056763,1.747375-4.582947,4.627991-4.582947,8.642151,0,5.413696,2.31189,8.686157,6.93988,9.819702,4.62384,1.137512,9.296936,1.703247,14.010742,1.703247,7.332764,0,17.022644-1.047546,29.069275-3.142639,9.427795-1.571228,17.632141-2.356934,24.617188-2.356934,37.359375,0,56.043274,20.602966,56.043274,61.80481,0,18.855652-5.806519,33.217346-17.415405,43.078918-11.612915,9.865662-31.778015,16.588745-60.495239,20.165039-28.721375,3.580505-69.182617,5.36969-121.383545,5.36969-21.826477,0-39.372742-4.190125-52.638794-12.570435-13.969971-8.728149-22.174255-21.908142-24.617065-39.544617-7.332764-55.167542-10.999207-111.210754-10.999207-168.1297,0-43.996765,2.180908-78.041687,6.547058-102.135071,4.362-24.093384,12.701538-40.854004,25.01001-50.28186,3.94635-3.022766,8.491821-5.543945,13.599854-7.594116-.465942-2.81012-.56073-5.688293-.356079-8.481567.358521-4.894531,2.697754-10.056458,5.923706-14.216431-12.251953,3.030457-22.738098,7.834229-31.329651,14.414551-16.328613,12.507812-27.272461,33.568359-32.527344,62.593262-4.621094,25.501465-6.867676,60.076172-6.867676,105.701172,0,57.529297,3.759277,114.983398,11.17334,170.764648l.014648.109375c3.237305,23.366211,14.935547,41.956055,33.74707,53.709961,16.45166,10.391602,37.755859,15.661133,63.320312,15.661133,52.789551,0,94.461426-1.858398,123.85498-5.523438,32.972168-4.106445,56.1875-12.208008,70.97168-24.768555,16.235352-13.791992,24.467285-33.414062,24.467285-58.322266,0-25.625-6.458496-45.740234-19.196289-59.787109Z" fill="#fff"/>
  </g>
  <path d="M142.787024,404.445675c-13.037864,16.683708-19.903731,36.26176-23.539119,52.236737-1.299084,5.708562-6.894506,5.708921-8.193922.000516-3.636439-15.975071-10.502266-35.553366-23.540224-52.237253-10.119638-12.958123-20.886515-20.236874-29.973748-24.354195-4.007624-1.815809-4.045916-9.947912-.060187-11.86151,9.166355-4.40088,20.055905-11.596847,29.101078-23.179176,13.037986-16.683864,19.903834-36.262126,23.540274-52.237185,1.299418-5.708407,6.894839-5.708046,8.193923.00052,3.635382,15.974964,10.501223,35.552983,23.539067,52.236666,10.123714,12.958703,20.891025,20.237558,29.978504,24.354814,4.007701,1.815765,4.045856,9.948061.060039,11.861575-9.16702,4.400908-20.057706,11.596715-29.105687,23.178493Z" fill="none" stroke="#fff" stroke-miterlimit="10" stroke-width="16"/>
  <path d="M959.735176,799.610369c-8.090819,10.353296-12.351524,22.502716-14.607512,32.416199-.806164,3.542524-4.278477,3.542747-5.084847.00032-2.25664-9.913542-6.51732-22.063112-14.608198-32.41652-6.279875-8.041335-12.961403-12.55826-18.600606-15.113319-2.486984-1.126824-2.510747-6.173309-.03735-7.360817,5.688303-2.731024,12.445958-7.196577,18.059059-14.384145,8.090895-10.353393,12.351588-22.502943,14.608229-32.416477.806371-3.542428,4.278684-3.542204,5.084847.000323,2.255984,9.913475,6.516673,22.062874,14.60748,32.416155,6.282405,8.041695,12.964202,12.558685,18.603558,15.113702,2.487032,1.126797,2.51071,6.173401.037258,7.360857-5.688716,2.731042-12.447075,7.196495-18.06192,14.383721Z" fill="none" stroke="#fff" stroke-miterlimit="10" stroke-width="16"/>
</svg>